<svg xmlns="http://www.w3.org/2000/svg" width="180" height="180"><path fill="#fcfbfb" d="M0 0h180v180H0z"/><path fill="#fab660" d="m80 25 11 5c16 6 28 4 45 1q15 0 29 3 3 6 2 14v22l1 63v13l-1 5q-13 8-28 9l-4-2-16-2-21-3v-2h-9q-22 2-43-6l-9-3v-9h-6l-1-7 11-2v-3q-9-3-19-3l-11 8-9 4v-5l4-2 6-4 6-3 10-7 8-3 3-3 5-3 9-9 11-6c4-3 4-3 3-9l-1-1-21 6q-4 0-6-5v-3l3-1 5-12 3-7 3-6 7-14h9l2-6c2-2 2-2 9-2"/><path fill="#fb6d39" d="m80 25 12 5c18 8 27 9 49 9v97c-7 0-7 0-15-3V94h1v33l10 1 1-76-18 3q-9 17-8 36h-1l-1-12c-6 14-6 14-9 28l-1 7c-1 9-1 9 1 17l-9 2q-5 3-5 7h9l46 5-1 7a383 383 0 0 1-63-8c-9-1-9-1-13-3 0-7 0-7 2-13l1 3c7 1 10 1 17-2l4-8-8 2q-10-1-18-6c-15-8-15-8-30-5q11 8 25 12l1-3 10 4-3 4-1 11c-5 5-21 3-27 3l-1-10h-6l-1-7 11-2v-3q-9-3-19-3l-11 8-9 4v-5l4-2 6-4 6-3 10-7 8-3 3-3 5-3 9-9 11-6c4-3 4-3 3-9l-1-1-21 6q-4 0-6-5v-3l3-1 5-12 3-7 3-6 7-14h9l2-6c2-2 2-2 9-2"/><path fill="#cd3b16" d="m98 36 14 4 17-1h12v97c-7 0-7 0-15-3V94h1v33l10 1 1-76-18 3q-9 17-8 36h-1l-1-12c-6 14-6 14-9 28l-1 7c-1 9-1 9 1 17l-9 2q-5 3-5 7h9l46 5-1 7a383 383 0 0 1-63-8c-9-1-9-1-13-3 0-7 0-7 2-13l1 3c7 1 10 1 17-2l4-8-11 2 5-16 2-5 10-24 2 1 2-2v2c9-1 9-1 10-4h-9c-2-9 3-15 7-23l8-1q3 0 1-6l-8-3c-9-4-9-4-10-6"/><path fill="#db8835" d="m145 32 21 3q2 6 1 13v7l1 71v20l-1 5q-12 7-26 7v-1h5V41z"/><path fill="#4cb3ee" d="M138 52v64l-1 12-10-1-1 6-14-1v-29l-1-9c0-31 0-31 9-40z"/><path fill="#fdd2a3" d="m48 59-6 14h-3l3 7 11-4 13-2c2 2 2 2 2 8l-12 9-9 7-10 8-2 2-8 3-11 7-14 7 1 6H1V97l12-6q7-8 12-17 7-13 23-15"/><path fill="#a69493" d="m47 108 12 6c11 6 17 8 30 7l-5 10q-9 3-17-1l-1 11 34 6 40 5 1 5 7 1c-2 2-2 2-9 2l-4-2-16-2-21-3v-2h-9q-22 2-43-6l-5-1v-1l23-3v-8l3-6v-1c-5-3-5-3-8-3l-1 2q-8-1-16-6l-5-2-4-2v-3c8-4 8-4 14-3"/><path fill="#ce8852" d="M68 80c1 4 1 4-2 10l-7 6c-5 5-5 5-7 10l1 5-9-3-11 4q11 8 25 12l1-3 10 4-3 4-1 11c-5 5-21 3-27 3l-1-10h-6l-1-7 11-2v-3q-9-3-19-3l-11 8-9 4v-5l4-2 6-4 6-3 10-7 8-3 3-3 5-3 9-9 11-6z"/><path fill="#57c972" d="M138 52v64l-1 12-10-1-1-73c3-2 3-2 12-2"/><path fill="#499355" d="M141 39v97c-7 0-7 0-15-3V94h1v33l10 1 1-76c-8 0-8 0-11 2h-7V44l-2-3z"/><path fill="#b46a08" d="M110 78h1l1 34v20h8l12 3-23-2-15-1v-1l6-1-1-1q0-13 2-25l1-7c5-15 5-15 8-19"/><path fill="#aa682d" d="m94 131-5 4-2 5h9l46 5-1 7a383 383 0 0 1-63-8c-9-1-9-1-13-3v-7l4 1c8 2 8 2 17-2 2-2 2-2 8-2"/><path fill="#f5eeed" d="m47 108 12 6c11 6 17 8 30 7l-5 10q-8 3-16 0l1-6-10-3-1 2q-8-1-16-6l-5-2-4-2v-3c8-4 8-4 14-3"/><path fill="#b72a0f" d="M102 93q1 7-1 14c-2 12-2 12 0 24h-6c-7 0-7 0-11 4q-10 4-18-1l1-6 1 3c7 1 10 1 17-2l4-8-11 2 4-13h2l1-3 1 2c7 1 7 1 10-3z"/><path fill="#ded6da" d="m36 141 9 3q16 5 33 6h6l14 1v2l9 1c27 3 27 3 32 5q12-1 23-6l2 1c-6 8-15 7-23 8l-39-5-21-2q-25 0-47-10z"/><path fill="#f9f2ee" d="M74 28q13 2 24 9l5 2 14 6q1 6-2 7-14-1-27-8l-6-2-13-6z"/><path fill="#f8a844" d="m98 134 10 1 36 3q1 9-3 18l4 1h-5l2-12h-6l-30-2-6-1-13-2c2-8 2-7 11-6"/><path fill="#358bd6" d="M126 54v79h-11v-1h9l-1-68h-4l-3 14h-3l1 54h-2v-29l-1-9c0-40 0-40 15-40"/><path fill="#d23e1c" d="m98 36 14 4 7 2c2 2 2 2 2 9-7 19-7 19-10 21h-9l4-14-1-3c2-3 2-3 10-4q3 0 1-6l-8-3c-9-4-9-4-10-6"/><path fill="#fbf1ed" d="m64 50 16 5 5 3q6 2 6 5l-3 6-16-5-5-3q-6-1-6-6z"/><path fill="#fbcc1c" d="M111 95v36l-12-2q2-11 6-21l2-7q2-7 4-6"/><path fill="#3f2917" d="M140 39v12q-10 3-20 3V44l-2-3q10-2 22-2"/><path fill="#b4acad" d="m52 146 7 1 39 2 33 4c9 2 9 2 10 4l7 1c-2 2-2 2-9 2l-4-2-16-2-21-3v-2h-9c-27 0-27 0-37-4z"/><path fill="#d5d1cf" d="m47 108 12 6 17 8-1 2-7-1v-2l-4-1c-6-1-6-1-14-5h-5v2l3 1-1 2-15-7c3-7 9-6 15-5"/><path fill="#dd9b62" d="m145 32 21 3q2 7 1 13v103h-1V39l-15-1-5-2z"/><path fill="#bdb4bc" d="m36 141 9 3q16 5 33 6h6l14 1v2l4 1H80l-15-2h-7q-13-2-24-7z"/><path fill="#cf3010" d="M68 80c1 4 1 4-2 10l-7 6c-5 5-5 5-7 10l1 5-9-3c-1-3-1-3 2-9 5-6 5-6 13-11z"/><path fill="#f0985a" d="M47 97c0 3 0 3-4 10l-17 8-1 2-7 4-7 5-9 4v-5l4-2 6-4 6-3 10-7 8-3 3-3 5-3z"/><path fill="#fc8345" d="m103 50 4 1-7 18v6h9l-3 4h-8l-2 2-1-1-3 7c-3 7-3 7-5 8q1-9 5-17l2-6 6-12z"/><path fill="#945520" d="m70 138 41 4 6 1 23 3v4l-4-1-37-5-13-2h-7l-9-2z"/><path fill="#6cd783" d="M137 56h1v40h-1V75h-10V63l10-2z"/><path fill="#f44d27" d="m80 25 12 5c14 6 14 6 30 10v1c-9 0-12-1-20-4l-8-1-16-7h-4l-3 5h-6l4-1 2-6c2-2 2-2 9-2"/><path fill="#984b09" d="M102 93q1 7-1 14l-1 12-1 6v4h-9l6-17 4-15z"/><path fill="#f95b37" d="m59 121 10 4-3 4-1 11-5 1-1-4h-5l2-4c3-7 3-7 3-12"/><path fill="#c13019" d="m33 113 16 8 9 3-1 5-17-8c-7-4-7-4-14-3v-4q3-3 7-1"/><path fill="#f2a951" d="m41 122 6 2v3l-7 3-2 12h-1v-9h-6l-1-7 11-2z"/><path fill="#dc8f27" d="m111 78 1 34v20h8l12 3-23-2-15-1v-1h17l-1-35h-1c0-18 0-18 2-18"/><path fill="#e3e1e2" d="M164 154q-5 7-15 7-17 1-34-2v-1c18-2 18-2 24 1 7 0 20-8 25-5"/><path fill="#43b368" d="M126 94h1v33l10 1v-5h1v11l-12-1z"/><path fill="#6481b3" d="M116 64h3l-3 14h-3l1 54h-2V77c0-6 0-6 4-13"/><path fill="#bab1b0" d="m89 121-5 10-11 2 4-10z"/><path fill="#f9f4ed" d="M167 81h1v68l4 1v3l-10 4 4-6v-16l1-9z"/><path fill="#c2b7b7" d="m47 108 8 4v1h-7l-6 3-2 1-8-4c3-7 9-6 15-5"/><path fill="#f9be19" d="M111 95v36l-12-2v-6l11 2v-6l-1-8v-9q0-9 2-7"/><path fill="#f19c44" d="m145 32 21 3v4c-14-1-14-1-20-3z"/><path fill="#f44620" d="m98 36 14 4 7 2c2 2 2 2 2 9l-1 2h-13v-1l8-1q3 0 1-6l-8-3c-9-4-9-4-10-6"/><path fill="#b9732e" d="M44 134c8 1 8 1 11 4l4-1 1 4-21 2 4-1v-7z"/><path fill="#fab160" d="m41 63-8 4-11 17Q16 94 5 98l-3-1 5-2q12-8 18-21c8-13 8-13 16-11"/><path fill="#fb884d" d="m55 42 1 4 2-1-8 19-7 15q-1-8 5-17l2-8z"/><path fill="#e58a3b" d="M47 97c0 3 0 3-4 10l-21 9q5-8 14-10l3-3 5-3z"/><path fill="#fac673" d="M92 132c34-1 34-1 40 5l-34-2-6-1z"/><path fill="#58c1f2" d="M119 64h4q2 8 1 17l-1-4h-7z"/><path fill="#fa7b46" d="M73 25q10 0 19 5c14 6 14 6 30 10v1c-11 0-17-3-27-7l-22-8z"/><path fill="#e33d1b" d="M89 121h2c-3 9-3 9-6 12q-9 4-19 1l1-6 1 3c7 1 10 1 17-2z"/><path fill="#998e87" d="m109 148 31 4v3l-30-5z"/><path fill="#e1dad9" d="m63 120 5 1v2h9l-3 9-6-1 1-6-4-2z"/><path fill="#cfc7cd" d="M65 151h23l5 1-5 3-8-1-15-2z"/><path fill="#8f2e11" d="M90 123h2l-2 6h10l1 2h-6c-7 0-7 0-11 4-7 2-7 2-15 1l-1-2h10c9-2 9-2 12-11"/><path fill="#c97a09" d="M109 94q-1 11-6 20h-1c0-20 0-20 7-20"/><path fill="#c1280b" d="M59 91h-2l-2 4-4 4-3 5-2 3h-3c7-18 7-18 16-16"/><path fill="#3e9def" d="M123 123h1v9l-11-1v-6l10 2z"/><path fill="#f8c177" d="m41 122 6 2-1 4-15-1v5h-1v-6l11-2z"/><path fill="#cdc8cc" d="m36 141 12 5v2l5 1 1 2-20-6z"/><path fill="#eb9c44" d="M144 138q1 9-3 18l4 1h-5l2-12h-4q-1-9 6-7"/><path fill="#ccc1c0" d="M164 154q-5 7-15 7h-8v-1l9-3 6-2c6-2 6-2 8-1"/><path fill="#978883" d="m76 144 30 3v1H89c-6 0-6 0-13-3z"/><path fill="#e14f2d" d="m98 71 2 4h9l-3 4h-8l-2 2z"/><path fill="#fbc892" d="m64 74 4 2c0 6 0 6-7 12l-3 1c1-4 1-4 6-9z"/><path fill="#b1a8a5" d="m120 153 20 2 1 2 7 1c-2 2-2 2-9 2l-1-3-18-3z"/><path fill="#a89c9c" d="M57 142v4l5 1q-10 2-21-3v-1z"/><path fill="#f34a20" d="M38 117q9 2 16 6l4 1-1 5-5-4-6-3c-7-3-7-3-8-5"/><path fill="#759ac4" d="M116 64h3l-3 14h-3c0-9 0-9 3-14"/><path fill="#b4723a" d="m94 131-5 4-2 4-7-1q0-3 7-6z"/><path fill="#a67737" d="M96 111h1v17h-2l1-5h-4z"/><path fill="#ef4314" d="m119 43 2 1-1 9h-13v-1l8-1z"/><path fill="#d5d1d2" d="m105 154 22 2q-10 5-21 0z"/><path fill="#cae3cb" d="m127 123 10 1v4l-10-1z"/><path fill="#aba1a1" d="m44 108-5 6v2l-6-2v-3c8-4 8-4 11-3"/><path fill="#ba710d" d="M108 81h1v13l-3 1-2 6c-1-4-1-4 1-8l2-10z"/><path fill="#8a4e1d" d="M70 138c17 1 17 1 19 3l-19-1z"/><path fill="#da9141" d="M40 130c2 3 2 3 2 12l-4 1c0-10 0-10 2-13"/><path fill="#faa65b" d="M47 97q1 3-3 7l-5 2v2c-4 2-4 2-11 2l8-4 3-3 5-3z"/><path fill="#e4e0e1" d="M93 154c11 0 11 0 17 2l5 1v1l-22-2z"/><path fill="#d4a8a2" d="M96 105q-1 5-3 5h-7l1-4z"/><path fill="#df380f" d="M95 78h1q-1 11-7 20l-2 1z"/><path fill="#ecf7ec" d="M137 61v4l-10 1v-3z"/><path fill="#e0dce1" d="m167 149 5 1v3l-10 4z"/><path fill="#f9eed5" d="m100 120 9 1v4l-9-1z"/><path fill="#a74f09" d="M102 93q1 7-1 14l-1 7h-1c0-14 0-14 3-21"/><path fill="#f26b2d" d="M48 59c2 6-3 11-5 16l-1 5q-4-4-3-7l3-1z"/><path fill="#eff8ee" d="m137 71-1 4h-9v-3z"/><path fill="#df350e" d="m105 57 2 1-7 17c-1-8 1-11 5-18"/><path fill="#d4cac7" d="m63 117 13 5-1 2-7-1v-2l-6-1z"/><path fill="#f6efec" d="m70 125 5 2-1 5-6-1z"/><path fill="#db340f" d="M67 89c-7 7-7 7-12 9 5-11 5-11 12-9"/><path fill="#ca3511" d="M68 80c1 4 1 4-1 8-6 2-6 2-10 1l8-5z"/><path fill="#fcead0" d="m65 75 1 4-5 3-2-2q0-6 6-5"/><path fill="#3b71b1" d="m122 54-2 10h-4c3-10 3-10 6-10"/><path fill="#53bbf0" d="M122 54h2v13l-1-3h-3z"/><path fill="#e5ebf5" d="M114 122h8v4h-8z"/><path fill="#ebe0df" d="m78 29 16 6v1c-7-1-7-1-16-5z"/><path fill="#d5cccd" d="m162 153 2 1c-3 4-3 4-12 6z"/><path fill="#8e5f15" d="M92 123h4v6h-6z"/><path fill="#eff6f9" d="M116 73h7v4h-7z"/><path fill="#ecdbd7" d="m94 36 15 5v1l-15-4z"/><path fill="#d9482b" d="M89 121h2l-5 11-4-1 4-4z"/><path fill="#e5bdb6" d="M102 69h9v3h-9z"/><path fill="#ebd0c9" d="m114 44 3 1q1 6-2 7h-8v-1l6-1z"/><path fill="#fc7d41" d="m85 96 3 1-5 11h-2z"/><path fill="#e0c2bf" d="M100 75h9l-1 3h-8z"/><path fill="#d9d2d6" d="m39 146 14 3 1 2-15-4z"/><path fill="#d59c5d" d="m48 125 7 3v1H43z"/><path fill="#e5d8d8" d="M47 113v2h-2v2l3 1-1 2-5-2v-3z"/><path fill="#f08d3f" d="m32 110-3 1-1 3-3 2-3-1c5-5 5-5 10-5"/><path fill="#b42509" d="M48 98c1 3 1 3-2 9h-3z"/><path fill="#faba6f" d="m41 63-8 4-4 4q-1-3 4-7c4-2 4-2 8-1"/><path fill="#f15027" d="M118 41q2 4-1 7l-1-3-5-2q1-2 7-2"/><path fill="#9e220e" d="M33 113v3h-6l-2 1q2-6 8-4"/><path fill="#f9c385" d="m64 74 4 2v6l-5-1 2-4z"/><path fill="#ea7d3a" d="m108 37 14 3v1c-10 0-10 0-15-2z"/><path fill="#dd3810" d="M86 99h1c0 8 0 8-3 11-1-4-1-4 2-11"/><path fill="#faad72" d="M45 66c-2 6-2 6-7 8q0-7 7-8"/><path fill="#d3d0d2" d="m130 157 8 1 1 2-9-1z"/><path fill="#d44328" d="m101 71 9 3-1 2-8-1z"/><path fill="#c7c3c5" d="M47 110v3l-7 4v-3z"/><path fill="#e3eff6" d="M119 64h4v4h-5z"/><path fill="#ea4a28" d="M54 124h4l-1 5-4-2z"/><path fill="#e54012" d="M95 78h1l-1 8-3 1z"/></svg>