<?xml version="1.0" encoding="UTF-8"?>
<svg version="1.1" xmlns="http://www.w3.org/2000/svg" width="180" height="180">
<path d="M0 0 C59.4 0 118.8 0 180 0 C180 59.4 180 118.8 180 180 C120.6 180 61.2 180 0 180 C0 120.6 0 61.2 0 0 Z " fill="#FCFBFB" transform="translate(0,0)"/>
<path d="M0 0 C5.31243091 0.15370505 9.84904924 2.73419744 14.59765625 4.90625 C23.43387493 8.69755869 30.34253624 10.78049902 40.03515625 9.40625 C40.82196777 9.29603516 41.6087793 9.18582031 42.41943359 9.07226562 C45.90190368 8.57710907 49.37963604 8.07310437 52.84619141 7.47558594 C61.9756827 5.92186443 70.33730764 6.35758983 79.47265625 7.71875 C80.36919922 7.83669922 81.26574219 7.95464844 82.18945312 8.07617188 C83.04474609 8.20185547 83.90003906 8.32753906 84.78125 8.45703125 C85.55138428 8.56700439 86.32151855 8.67697754 87.11499023 8.7902832 C89.03515625 9.40625 89.03515625 9.40625 91.03515625 12.40625 C91.29521847 14.5473938 91.29521847 14.5473938 91.30931091 17.07470703 C91.31928604 18.03370911 91.32926117 18.99271118 91.33953857 19.98077393 C91.34020325 21.03125916 91.34086792 22.08174438 91.34155273 23.1640625 C91.34987625 24.27158875 91.35819977 25.37911499 91.36677551 26.52020264 C91.39092236 30.19058722 91.39965246 33.86079435 91.40625 37.53125 C91.41521113 40.07568416 91.42433287 42.62011775 91.43360901 45.16455078 C91.4501132 50.50099298 91.45783522 55.83736834 91.46069336 61.17382812 C91.46433208 67.34463553 91.49425198 73.5149466 91.53609794 79.68560219 C91.57493494 85.62030173 91.5862851 91.55485153 91.58741951 97.48968506 C91.59163744 100.01595761 91.60413407 102.54222999 91.62493706 105.06842041 C91.65167536 108.59553792 91.64707796 112.12127175 91.63452148 115.6484375 C91.65677292 117.22416534 91.65677292 117.22416534 91.67947388 118.83172607 C91.65277115 121.45451473 91.59924569 123.8449461 91.03515625 126.40625 C88.61802673 128.52290344 88.61802673 128.52290344 86.03515625 129.40625 C85.39980957 129.70039795 84.76446289 129.9945459 84.10986328 130.29760742 C82.13107973 131.07534753 80.14863108 131.84110299 78.16015625 132.59375 C77.13728516 133.00270508 77.13728516 133.00270508 76.09375 133.41992188 C71.60806334 135.12448281 67.90241651 135.85779101 63.03515625 135.40625 C62.4623291 135.09139648 61.88950195 134.77654297 61.29931641 134.45214844 C58.15553982 132.99992298 54.97082324 132.73710094 51.56640625 132.37109375 C50.84908325 132.28751114 50.13176025 132.20392853 49.3927002 132.11781311 C47.10760206 131.85268393 44.82152027 131.59771021 42.53515625 131.34375 C40.24902788 131.08452066 37.96317647 130.82313286 35.6776123 130.55897522 C34.25781718 130.39543407 32.83765888 130.23500742 31.41711426 130.07810974 C28.22155973 129.71509829 25.12887194 129.30135851 22.03515625 128.40625 C22.03515625 127.74625 22.03515625 127.08625 22.03515625 126.40625 C20.83503906 126.42945313 19.63492188 126.45265625 18.3984375 126.4765625 C-15.20139274 126.92614969 -15.20139274 126.92614969 -29.96484375 120.40625 C-31.68781361 119.80485993 -33.41685149 119.22048554 -35.15234375 118.65625 C-36.41046875 118.24375 -37.66859375 117.83125 -38.96484375 117.40625 C-38.96484375 114.43625 -38.96484375 111.46625 -38.96484375 108.40625 C-39.93421875 108.426875 -40.90359375 108.4475 -41.90234375 108.46875 C-44.96484375 108.40625 -44.96484375 108.40625 -45.96484375 107.40625 C-46.00565158 105.40666636 -46.00738731 103.40579746 -45.96484375 101.40625 C-40.51984375 100.41625 -40.51984375 100.41625 -34.96484375 99.40625 C-34.96484375 98.41625 -34.96484375 97.42625 -34.96484375 96.40625 C-38.9625244 94.97850691 -42.74825536 93.92256695 -46.96484375 93.40625 C-48.01671875 93.220625 -49.06859375 93.035 -50.15234375 92.84375 C-55.3376821 93.60879992 -58.22093613 96.19123776 -62.3046875 99.359375 C-70.16331703 105.40625 -70.16331703 105.40625 -73.96484375 105.40625 C-73.96484375 103.75625 -73.96484375 102.10625 -73.96484375 100.40625 C-73.35487549 100.06368164 -72.74490723 99.72111328 -72.11645508 99.36816406 C-69.33413013 97.80213147 -66.55572677 96.22926474 -63.77734375 94.65625 C-62.81763672 94.11742188 -61.85792969 93.57859375 -60.86914062 93.0234375 C-56.26048289 90.40814384 -52.07036391 87.77231437 -47.96484375 84.40625 C-45.83203125 83.46484375 -45.83203125 83.46484375 -43.83984375 82.84375 C-40.74611215 81.87470177 -39.17656889 80.76542349 -36.96484375 78.40625 C-35.30205048 77.3998225 -33.63500891 76.40039593 -31.96484375 75.40625 C-29.27165626 73.43562501 -27.22955641 71.79313773 -25.33984375 69.03125 C-22.21470532 65.57714963 -18.65611261 63.9106862 -14.5234375 61.8359375 C-12.18400355 60.52871181 -10.59920268 59.51299839 -8.96484375 57.40625 C-8.63122456 54.32233998 -8.63122456 54.32233998 -8.96484375 51.40625 C-9.29484375 51.07625 -9.62484375 50.74625 -9.96484375 50.40625 C-16.87991845 50.63297376 -22.029308 52.49427099 -28.265625 55.4453125 C-31.11098961 56.45827877 -32.23606514 56.61904049 -34.96484375 55.40625 C-36.6858591 52.82472698 -36.96484375 51.55706975 -36.96484375 48.40625 C-35.97484375 48.07625 -34.98484375 47.74625 -33.96484375 47.40625 C-32.61405923 45.13574696 -32.61405923 45.13574696 -31.4765625 42.296875 C-31.02007324 41.23726562 -30.56358398 40.17765625 -30.09326172 39.0859375 C-29.38000732 37.38824219 -29.38000732 37.38824219 -28.65234375 35.65625 C-27.67002542 33.36946738 -26.68695909 31.08300592 -25.703125 28.796875 C-24.99663818 27.14268555 -24.99663818 27.14268555 -24.27587891 25.45507812 C-22.68130016 21.74686594 -21.02901994 18.07229662 -19.33984375 14.40625 C-18.67082031 12.9521875 -18.67082031 12.9521875 -17.98828125 11.46875 C-16.96484375 9.40625 -16.96484375 9.40625 -15.96484375 8.40625 C-14.44556337 8.33445036 -12.92316893 8.32232993 -11.40234375 8.34375 C-10.57605469 8.35277344 -9.74976562 8.36179687 -8.8984375 8.37109375 C-8.26035156 8.38269531 -7.62226562 8.39429688 -6.96484375 8.40625 C-6.67609375 7.4575 -6.38734375 6.50875 -6.08984375 5.53125 C-4.68623815 1.63234556 -4.15948808 0.56994303 0 0 Z " fill="#FAB660" transform="translate(75.96484375,24.59375)"/>
<path d="M0 0 C5.68026475 0.1703492 10.74943772 2.90926596 15.859375 5.171875 C17.91559162 6.06497919 19.97287972 6.95562069 22.03125 7.84375 C22.93456055 8.24174805 23.83787109 8.63974609 24.76855469 9.04980469 C41.05254071 15.73761537 44.27813111 14.421875 65.109375 14.421875 C65.109375 46.431875 65.109375 78.441875 65.109375 111.421875 C58.109375 111.421875 58.109375 111.421875 50.109375 108.421875 C50.109375 95.551875 50.109375 82.681875 50.109375 69.421875 C50.439375 69.421875 50.769375 69.421875 51.109375 69.421875 C51.109375 80.311875 51.109375 91.201875 51.109375 102.421875 C54.409375 102.751875 57.709375 103.081875 61.109375 103.421875 C61.439375 78.341875 61.769375 53.261875 62.109375 27.421875 C59.139375 27.751875 56.169375 28.081875 53.109375 28.421875 C51.82160156 28.40833984 51.82160156 28.40833984 50.5078125 28.39453125 C47.80266849 28.51464382 46.40107811 28.93435134 44.109375 30.421875 C36.48610185 41.3428562 36.01673785 53.50560953 36.109375 66.421875 C35.779375 66.421875 35.449375 66.421875 35.109375 66.421875 C34.614375 60.481875 34.614375 60.481875 34.109375 54.421875 C32.87552112 57.62111667 31.6439938 60.8211851 30.41796875 64.0234375 C29.67213318 65.9603836 28.91916573 67.89470291 28.14453125 69.8203125 C26.47138244 74.03231895 25.600129 77.9232967 25.109375 82.421875 C24.93921875 83.48664063 24.7690625 84.55140625 24.59375 85.6484375 C24.09271105 89.55169258 23.97653108 93.30064753 23.984375 97.234375 C23.98179688 98.54019531 23.97921875 99.84601563 23.9765625 101.19140625 C23.88369545 104.31226178 23.88369545 104.31226178 25.109375 106.421875 C24.50609375 106.51984375 23.9028125 106.6178125 23.28125 106.71875 C18.44465286 107.62366172 15.14754712 108.24438833 12.109375 112.421875 C11.614375 113.906875 11.614375 113.906875 11.109375 115.421875 C12.86894531 115.36193359 12.86894531 115.36193359 14.6640625 115.30078125 C21.58716059 115.30213395 28.39185013 116.40178443 35.234375 117.359375 C45.52630955 118.79525367 55.73112374 119.86453481 66.109375 120.421875 C65.779375 122.731875 65.449375 125.041875 65.109375 127.421875 C54.50784412 126.83595639 44.10918359 125.56386219 33.609375 124.046875 C31.22327066 123.70655079 28.83698572 123.36751399 26.45068359 123.02857971 C24.87800826 122.80508075 23.30541591 122.58099697 21.73291016 122.35630798 C17.16417794 121.7052965 12.59297867 121.08424906 8.015625 120.49609375 C6.99919922 120.36444824 5.98277344 120.23280273 4.93554688 120.09716797 C3.10943104 119.86275123 1.28263577 119.63354201 -0.54492188 119.41064453 C-4.40142306 118.90942449 -7.48314661 118.28261244 -10.890625 116.421875 C-11.08356908 111.59827311 -10.64810114 107.92540762 -8.890625 103.421875 C-8.560625 104.411875 -8.230625 105.401875 -7.890625 106.421875 C-1.50863767 107.48767973 3.45338171 108.15483057 9.109375 104.421875 C10.79787928 101.87659258 12.02001409 99.27045228 13.109375 96.421875 C11.93375 96.7725 10.758125 97.123125 9.546875 97.484375 C1.02463673 100.02609519 -5.92653563 95.77414114 -13.390625 92.046875 C-15.40044922 91.05868998 -17.4108523 90.07168126 -19.421875 89.0859375 C-20.36417969 88.62364746 -21.30648437 88.16135742 -22.27734375 87.68505859 C-27.85675484 84.63128085 -27.85675484 84.63128085 -33.890625 83.546875 C-34.550625 83.835625 -35.210625 84.124375 -35.890625 84.421875 C-36.48359375 84.66808594 -37.0765625 84.91429688 -37.6875 85.16796875 C-39.43138923 85.89691445 -41.16205367 86.6573146 -42.890625 87.421875 C-39.12447115 90.60707958 -34.82874347 92.48981839 -30.390625 94.546875 C-29.63136719 94.90652344 -28.87210938 95.26617187 -28.08984375 95.63671875 C-24.70211416 97.22082348 -21.55366435 98.6041229 -17.890625 99.421875 C-17.395625 97.936875 -17.395625 97.936875 -16.890625 96.421875 C-13.40391666 97.5312822 -10.11578263 98.68525166 -6.890625 100.421875 C-7.890625 102.421875 -7.890625 102.421875 -9.890625 104.421875 C-10.81343458 107.19030373 -10.97433173 108.71130941 -10.890625 111.546875 C-10.890625 112.825625 -10.890625 114.104375 -10.890625 115.421875 C-12.88958436 117.42083436 -16.58537008 117.15146087 -19.328125 117.484375 C-20.05008057 117.57307861 -20.77203613 117.66178223 -21.51586914 117.75317383 C-26.94409921 118.38512426 -32.42975744 118.95434054 -37.890625 118.421875 C-38.890625 117.421875 -38.890625 117.421875 -38.98828125 115.35546875 C-38.97667969 114.53175781 -38.96507812 113.70804687 -38.953125 112.859375 C-38.94410156 112.03308594 -38.93507812 111.20679688 -38.92578125 110.35546875 C-38.91417969 109.71738281 -38.90257812 109.07929688 -38.890625 108.421875 C-39.86 108.4425 -40.829375 108.463125 -41.828125 108.484375 C-44.890625 108.421875 -44.890625 108.421875 -45.890625 107.421875 C-45.93143283 105.42229136 -45.93316856 103.42142246 -45.890625 101.421875 C-40.445625 100.431875 -40.445625 100.431875 -34.890625 99.421875 C-34.890625 98.431875 -34.890625 97.441875 -34.890625 96.421875 C-38.88830565 94.99413191 -42.67403661 93.93819195 -46.890625 93.421875 C-47.9425 93.23625 -48.994375 93.050625 -50.078125 92.859375 C-55.26346335 93.62442492 -58.14671738 96.20686276 -62.23046875 99.375 C-70.08909828 105.421875 -70.08909828 105.421875 -73.890625 105.421875 C-73.890625 103.771875 -73.890625 102.121875 -73.890625 100.421875 C-73.28065674 100.07930664 -72.67068848 99.73673828 -72.04223633 99.38378906 C-69.25991138 97.81775647 -66.48150802 96.24488974 -63.703125 94.671875 C-62.74341797 94.13304688 -61.78371094 93.59421875 -60.79492188 93.0390625 C-56.18626414 90.42376884 -51.99614516 87.78793937 -47.890625 84.421875 C-45.7578125 83.48046875 -45.7578125 83.48046875 -43.765625 82.859375 C-40.6718934 81.89032677 -39.10235014 80.78104849 -36.890625 78.421875 C-35.22783173 77.4154475 -33.56079016 76.41602093 -31.890625 75.421875 C-29.19743751 73.45125001 -27.15533766 71.80876273 -25.265625 69.046875 C-22.14048657 65.59277463 -18.58189386 63.9263112 -14.44921875 61.8515625 C-12.1097848 60.54433681 -10.52498393 59.52862339 -8.890625 57.421875 C-8.55700581 54.33796498 -8.55700581 54.33796498 -8.890625 51.421875 C-9.220625 51.091875 -9.550625 50.761875 -9.890625 50.421875 C-16.8056997 50.64859876 -21.95508925 52.50989599 -28.19140625 55.4609375 C-31.03677086 56.47390377 -32.16184639 56.63466549 -34.890625 55.421875 C-36.61164035 52.84035198 -36.890625 51.57269475 -36.890625 48.421875 C-35.900625 48.091875 -34.910625 47.761875 -33.890625 47.421875 C-32.53984048 45.15137196 -32.53984048 45.15137196 -31.40234375 42.3125 C-30.94585449 41.25289062 -30.48936523 40.19328125 -30.01904297 39.1015625 C-29.30578857 37.40386719 -29.30578857 37.40386719 -28.578125 35.671875 C-27.59580667 33.38509238 -26.61274034 31.09863092 -25.62890625 28.8125 C-24.92241943 27.15831055 -24.92241943 27.15831055 -24.20166016 25.47070312 C-22.60708141 21.76249094 -20.95480119 18.08792162 -19.265625 14.421875 C-18.59660156 12.9678125 -18.59660156 12.9678125 -17.9140625 11.484375 C-16.890625 9.421875 -16.890625 9.421875 -15.890625 8.421875 C-14.37134462 8.35007536 -12.84895018 8.33795493 -11.328125 8.359375 C-10.50183594 8.36839844 -9.67554687 8.37742187 -8.82421875 8.38671875 C-8.18613281 8.39832031 -7.54804687 8.40992188 -6.890625 8.421875 C-6.601875 7.473125 -6.313125 6.524375 -6.015625 5.546875 C-4.63074508 1.69998633 -4.09921442 0.59826373 0 0 Z " fill="#FB6D39" transform="translate(75.890625,24.578125)"/>
<path d="M0 0 C3.83327976 0.391151 6.80779753 0.90933846 10.3125 2.5625 C16.02517005 4.78947307 21.37580815 4.38876916 27.375 3.5 C32.53712603 2.78798262 37.78900068 3 43 3 C43 35.01 43 67.02 43 100 C36 100 36 100 28 97 C28 84.13 28 71.26 28 58 C28.33 58 28.66 58 29 58 C29 68.89 29 79.78 29 91 C32.3 91.33 35.6 91.66 39 92 C39.33 66.92 39.66 41.84 40 16 C37.03 16.33 34.06 16.66 31 17 C29.71222656 16.98646484 29.71222656 16.98646484 28.3984375 16.97265625 C25.69329349 17.09276882 24.29170311 17.51247634 22 19 C14.37672685 29.9209812 13.90736285 42.08373453 14 55 C13.67 55 13.34 55 13 55 C12.505 49.06 12.505 49.06 12 43 C10.76614612 46.19924167 9.5346188 49.3993101 8.30859375 52.6015625 C7.56275818 54.5385086 6.80979073 56.47282791 6.03515625 58.3984375 C4.36200744 62.61044395 3.490754 66.5014217 3 71 C2.82984375 72.06476563 2.6596875 73.12953125 2.484375 74.2265625 C1.98333605 78.12981758 1.86715608 81.87877253 1.875 85.8125 C1.87242188 87.11832031 1.86984375 88.42414063 1.8671875 89.76953125 C1.77432045 92.89038678 1.77432045 92.89038678 3 95 C2.39671875 95.09796875 1.7934375 95.1959375 1.171875 95.296875 C-3.66472214 96.20178672 -6.96182788 96.82251333 -10 101 C-10.33 101.99 -10.66 102.98 -11 104 C-9.24042969 103.94005859 -9.24042969 103.94005859 -7.4453125 103.87890625 C-0.52221441 103.88025895 6.28247513 104.97990943 13.125 105.9375 C23.41693455 107.37337867 33.62174874 108.44265981 44 109 C43.67 111.31 43.34 113.62 43 116 C32.39846912 115.41408139 21.99980859 114.14198719 11.5 112.625 C9.11389566 112.28467579 6.72761072 111.94563899 4.34130859 111.60670471 C2.76863326 111.38320575 1.19604091 111.15912197 -0.37646484 110.93443298 C-4.94519706 110.2834215 -9.51639633 109.66237406 -14.09375 109.07421875 C-15.11017578 108.94257324 -16.12660156 108.81092773 -17.17382812 108.67529297 C-18.99994396 108.44087623 -20.82673923 108.21166701 -22.65429688 107.98876953 C-26.51079806 107.48754949 -29.59252161 106.86073744 -33 105 C-33.19294408 100.17639811 -32.75747614 96.50353262 -31 92 C-30.67 92.99 -30.34 93.98 -30 95 C-23.61801267 96.06580473 -18.65599329 96.73295557 -13 93 C-11.26997374 90.39212659 -10.19778717 87.9226007 -9 85 C-14.445 85.99 -14.445 85.99 -20 87 C-19.37640675 81.36931979 -17.39176879 76.56318713 -15.25 71.375 C-14.88946533 70.48852783 -14.52893066 69.60205566 -14.1574707 68.6887207 C-13.11174947 66.12297148 -12.05754586 63.56089437 -11 61 C-10.7304248 60.34467285 -10.46084961 59.6893457 -10.18310547 59.01416016 C-7.83930783 53.3211697 -5.44067085 47.65207987 -3 42 C-2.34 42.33 -1.68 42.66 -1 43 C-0.34 42.34 0.32 41.68 1 41 C1 41.66 1 42.32 1 43 C2.48117801 42.71872579 3.95993249 42.42466268 5.4375 42.125 C6.26121094 41.96257812 7.08492187 41.80015625 7.93359375 41.6328125 C8.61550781 41.42398438 9.29742187 41.21515625 10 41 C10.495 40.01 10.495 40.01 11 39 C8.03 39 5.06 39 2 39 C0.39612162 34.43511537 1.32084378 31.72110898 3.25 27.5 C4.16666667 25.66666667 5.08333333 23.83333333 6 22 C6.433125 20.80375 6.86625 19.6075 7.3125 18.375 C9 16 9 16 10.92578125 15.45703125 C12.94116449 15.21003046 14.97191005 15.09813338 17 15 C18.29633621 13.93354885 18.29633621 13.93354885 18.0625 11.4375 C18.041875 10.633125 18.02125 9.82875 18 9 C16.78441406 8.51789062 15.56882813 8.03578125 14.31640625 7.5390625 C12.73162671 6.90139973 11.14699908 6.26335934 9.5625 5.625 C8.76005859 5.30789062 7.95761719 4.99078125 7.13085938 4.6640625 C5.98520508 4.2 5.98520508 4.2 4.81640625 3.7265625 C4.10943604 3.44377441 3.40246582 3.16098633 2.67407227 2.86962891 C1 2 1 2 0 0 Z " fill="#CD3B16" transform="translate(98,36)"/>
<path d="M0 0 C2.37587624 0.11486425 4.75015171 0.24158156 7.125 0.375 C8.12273437 0.42140625 8.12273437 0.42140625 9.140625 0.46875 C13.39016506 0.71872294 17.07056679 1.33984433 21 3 C22.19497277 5.38994554 22.13608953 6.87951807 22.15390015 9.54820251 C22.16250061 10.50582993 22.17110107 11.46345734 22.17996216 12.45010376 C22.18422211 13.50418427 22.18848206 14.55826477 22.19287109 15.64428711 C22.20104858 16.75166733 22.20922607 17.85904755 22.21765137 18.99998474 C22.24252808 22.6757655 22.25902456 26.35150768 22.2734375 30.02734375 C22.27876118 31.27947725 22.28408485 32.53161076 22.28956985 33.8216877 C22.31080119 39.08114634 22.3299324 44.34059915 22.34119225 49.60008907 C22.35744486 57.14229654 22.39065858 64.68398994 22.44759309 72.22600359 C22.49090552 78.16548619 22.50693125 84.10485345 22.51332474 90.04449654 C22.52006349 92.57357002 22.53535286 95.10263526 22.55921555 97.63160515 C22.59064876 101.16357948 22.59093653 104.69424232 22.58349609 108.22631836 C22.59990143 109.27837463 22.61630676 110.33043091 22.63320923 111.41436768 C22.61047296 114.03948493 22.55677376 116.43480833 22 119 C19.63833618 121.10035706 19.63833618 121.10035706 17 122 C16.07703125 122.38542969 15.1540625 122.77085937 14.203125 123.16796875 C7.84629442 125.36258883 2.72182425 126.44812162 -4 126 C-4 125.67 -4 125.34 -4 125 C-2.35 125 -0.7 125 1 125 C1.02335634 109.29264475 1.04099263 93.58529418 1.05181217 77.87792587 C1.05696931 70.58478973 1.06400094 63.29166438 1.07543945 55.99853516 C1.08540405 49.64213722 1.09185767 43.28574709 1.09408849 36.92934155 C1.09539258 33.56342683 1.09845936 30.19753446 1.10573006 26.83162689 C1.11296274 23.07491212 1.11398999 19.31824402 1.11352539 15.56152344 C1.11712067 14.44446518 1.12071594 13.32740692 1.12442017 12.17649841 C1.1230455 11.15288712 1.12167084 10.12927582 1.12025452 9.074646 C1.12117631 8.18603756 1.1220981 7.29742912 1.12304783 6.38189316 C1.00607463 4.11758947 0.6351531 2.17033939 0 0 Z " fill="#DB8835" transform="translate(145,32)"/>
<path d="M0 0 C0.80993408 0.00363052 1.61986816 0.00726105 2.4543457 0.01100159 C3.07140381 0.0156694 3.68846191 0.02033722 4.32421875 0.02514648 C4.34740319 9.19603906 4.36516497 18.36692152 4.37603092 27.53783703 C4.38124639 31.79639408 4.38831979 36.05493106 4.3996582 40.31347656 C4.41053455 44.42426564 4.41650566 48.53503543 4.41909599 52.64583778 C4.42094168 54.21309017 4.42454582 55.78034152 4.42994881 57.34758568 C4.43722223 59.54506068 4.43820703 61.74245627 4.43774414 63.93994141 C4.43996475 65.19014572 4.44218536 66.44035004 4.44447327 67.72843933 C4.33865512 70.62938182 3.99881008 73.20968884 3.32421875 76.02514648 C-3.30078125 76.15014648 -3.30078125 76.15014648 -6.67578125 75.02514648 C-7.00578125 77.00514648 -7.33578125 78.98514648 -7.67578125 81.02514648 C-9.44653042 81.05220377 -11.21739836 81.07156843 -12.98828125 81.08764648 C-13.97441406 81.09924805 -14.96054688 81.11084961 -15.9765625 81.12280273 C-18.67578125 81.02514648 -18.67578125 81.02514648 -21.67578125 80.02514648 C-21.83954058 72.34845725 -21.96313096 64.67195376 -22.03846645 56.99390411 C-22.07466512 53.42669541 -22.12357761 49.8607 -22.20385742 46.29418945 C-22.87538673 15.68000742 -22.87538673 15.68000742 -14.67578125 3.02514648 C-13.20401826 1.55338349 -11.69285973 1.43539925 -9.67578125 0.96264648 C-8.95390625 0.78604492 -8.23203125 0.60944336 -7.48828125 0.42749023 C-4.92481954 0.0607728 -2.58308776 -0.01502134 0 0 Z " fill="#4CB3EE" transform="translate(133.67578125,51.974853515625)"/>
<path d="M0 0 C-3.18284424 10.36117381 -3.18284424 10.36117381 -6 14 C-6.99 14 -7.98 14 -9 14 C-8.01 16.31 -7.02 18.62 -6 21 C-0.74973093 20.14939775 3.86024075 18.09484653 8.74609375 16.05859375 C12.08570146 14.97211873 14.51615616 14.64409653 18 15 C20 17 20 17 20.5625 19.75 C19.84142022 23.91623872 18.38419101 25.0330287 15.13671875 27.5625 C12.22392944 29.52210963 9.16893854 31.14130887 6.0703125 32.78515625 C3.22616509 34.45408048 1.19733259 36.55851934 -1 39 C-4.15338752 42.3110569 -7.02836626 44.7458295 -11 47 C-11.66 47.66 -12.32 48.32 -13 49 C-14.7015625 49.5878125 -14.7015625 49.5878125 -16.4375 50.1875 C-21.08090331 51.852432 -24.9337283 54.3865994 -29.04296875 57.08203125 C-32.17376812 59.11270825 -35.34917383 61.04029065 -38.5625 62.9375 C-40.04943359 63.81728516 -40.04943359 63.81728516 -41.56640625 64.71484375 C-44 66 -44 66 -46 66 C-45.67 67.98 -45.34 69.96 -45 72 C-45.66 72 -46.32 72 -47 72 C-47 60.78 -47 49.56 -47 38 C-43.04 36.02 -39.08 34.04 -35 32 C-31.19249998 27.92991377 -28.4708264 23.8341623 -25.70703125 19.0390625 C-17.42936974 4.84506846 -17.42936974 4.84506846 -8 2 C-6.845 1.566875 -5.69 1.13375 -4.5 0.6875 C-2 0 -2 0 0 0 Z " fill="#FDD2A3" transform="translate(48,59)"/>
<path d="M0 0 C0.94222412 0.48476807 1.88444824 0.96953613 2.85522461 1.46899414 C3.89614258 1.9981543 4.93706055 2.52731445 6.00952148 3.07250977 C7.08137695 3.62745117 8.15323242 4.18239258 9.25756836 4.75415039 C11.39341276 5.84830675 13.53010185 6.94081619 15.66772461 8.03149414 C16.6088208 8.51739014 17.54991699 9.00328613 18.51953125 9.50390625 C23.81313486 12.10119675 27.05896921 13.04251899 33.00756836 12.44165039 C34.16901367 12.33079102 35.33045898 12.21993164 36.52709961 12.10571289 C37.4075293 12.01032227 38.28795898 11.91493164 39.19506836 11.81665039 C38.31213669 15.85540716 36.81021528 18.56538665 34.19506836 21.81665039 C29.61233312 24.15893729 26.15421225 23.91868237 21.19506836 22.81665039 C18.75756836 21.75415039 18.75756836 21.75415039 17.19506836 20.81665039 C17.03006836 22.07477539 16.86506836 23.33290039 16.69506836 24.62915039 C16.55584961 25.69069336 16.55584961 25.69069336 16.41381836 26.77368164 C16.14183536 28.97136745 16.14183536 28.97136745 16.19506836 31.81665039 C26.70146081 34.10745133 37.18749675 35.71065541 47.85739136 37.00918579 C52.14327924 37.53103388 56.42692203 38.07071544 60.71069336 38.60961914 C61.54011948 38.71360519 62.36954559 38.81759125 63.22410583 38.92472839 C72.23906515 40.06169183 81.2229729 41.38158181 90.19506836 42.81665039 C90.69006836 45.29165039 90.69006836 45.29165039 91.19506836 47.81665039 C93.50506836 48.14665039 95.81506836 48.47665039 98.19506836 48.81665039 C96.19506836 50.81665039 96.19506836 50.81665039 92.82006836 51.06665039 C89.19506836 50.81665039 89.19506836 50.81665039 87.43530273 49.86572266 C84.30460751 48.3996593 81.12376401 48.14675184 77.72631836 47.78149414 C77.00899536 47.69791153 76.29167236 47.61432892 75.5526123 47.5282135 C73.26751417 47.26308432 70.98143238 47.0081106 68.69506836 46.75415039 C66.40893999 46.49492105 64.12308858 46.23353325 61.83752441 45.96937561 C60.41772929 45.80583446 58.99757099 45.64540781 57.57702637 45.48851013 C54.38147184 45.12549868 51.28878405 44.7117589 48.19506836 43.81665039 C48.19506836 43.15665039 48.19506836 42.49665039 48.19506836 41.81665039 C46.99495117 41.83985352 45.79483398 41.86305664 44.55834961 41.88696289 C11.06702565 42.33509819 11.06702565 42.33509819 -1.64868164 36.71899414 C-4.01340598 35.72940841 -6.28367275 35.24721749 -8.80493164 34.81665039 C-8.80493164 34.48665039 -8.80493164 34.15665039 -8.80493164 33.81665039 C-1.15418206 32.26541573 6.40698273 31.33313774 14.19506836 30.81665039 C14.13319336 29.62040039 14.07131836 28.42415039 14.00756836 27.19165039 C13.98561527 23.07178753 15.10067291 20.39457595 17.19506836 16.81665039 C17.19506836 16.48665039 17.19506836 16.15665039 17.19506836 15.81665039 C13.39079344 13.61526379 13.39079344 13.61526379 9.19506836 12.81665039 C8.86506836 13.47665039 8.53506836 14.13665039 8.19506836 14.81665039 C2.28491257 14.28376749 -2.43607655 11.83264239 -7.67993164 9.25415039 C-8.55907227 8.8294043 -9.43821289 8.4046582 -10.34399414 7.96704102 C-12.5010452 6.9236848 -14.65443452 5.87343155 -16.80493164 4.81665039 C-16.80493164 3.82665039 -16.80493164 2.83665039 -16.80493164 1.81665039 C-15.60829194 1.1089929 -14.39681588 0.42639918 -13.17993164 -0.24584961 C-12.50704102 -0.62870117 -11.83415039 -1.01155273 -11.14086914 -1.40600586 C-7.17385123 -2.72613389 -3.76882359 -1.58999808 0 0 Z " fill="#A69493" transform="translate(49.804931640625,109.183349609375)"/>
<path d="M0 0 C1.1854683 2.80201597 1.01522667 3.95622331 0 6.875 C-2.4796982 10.74952844 -5.45745053 13.13481713 -9 16 C-12.40320391 19.1006969 -14.8664162 21.46566481 -16 26 C-15.70480232 28.7336432 -15.70480232 28.7336432 -15 31 C-15.60328125 30.77183594 -16.2065625 30.54367188 -16.828125 30.30859375 C-17.62734375 30.02113281 -18.4265625 29.73367187 -19.25 29.4375 C-20.03890625 29.14746094 -20.8278125 28.85742188 -21.640625 28.55859375 C-25.47524158 27.65072923 -28.2510569 29.01489055 -31.75 30.5625 C-33.35875 31.2740625 -33.35875 31.2740625 -35 32 C-31.23384615 35.18520458 -26.93811847 37.06794339 -22.5 39.125 C-21.74074219 39.48464844 -20.98148438 39.84429687 -20.19921875 40.21484375 C-16.81148916 41.79894848 -13.66303935 43.1822479 -10 44 C-9.67 43.01 -9.34 42.02 -9 41 C-5.51329166 42.1094072 -2.22515763 43.26337666 1 45 C0 47 0 47 -2 49 C-2.92280958 51.76842873 -3.08370673 53.28943441 -3 56.125 C-3 57.40375 -3 58.6825 -3 60 C-4.99895936 61.99895936 -8.69474508 61.72958587 -11.4375 62.0625 C-12.15945557 62.15120361 -12.88141113 62.23990723 -13.62524414 62.33129883 C-19.05347421 62.96324926 -24.53913244 63.53246554 -30 63 C-31 62 -31 62 -31.09765625 59.93359375 C-31.08605469 59.10988281 -31.07445312 58.28617188 -31.0625 57.4375 C-31.05347656 56.61121094 -31.04445312 55.78492188 -31.03515625 54.93359375 C-31.02355469 54.29550781 -31.01195312 53.65742188 -31 53 C-31.969375 53.020625 -32.93875 53.04125 -33.9375 53.0625 C-37 53 -37 53 -38 52 C-38.04080783 50.00041636 -38.04254356 47.99954746 -38 46 C-34.37 45.34 -30.74 44.68 -27 44 C-27 43.01 -27 42.02 -27 41 C-30.99768065 39.57225691 -34.78341161 38.51631695 -39 38 C-40.051875 37.814375 -41.10375 37.62875 -42.1875 37.4375 C-47.37283835 38.20254992 -50.25609238 40.78498776 -54.33984375 43.953125 C-62.19847328 50 -62.19847328 50 -66 50 C-66 48.35 -66 46.7 -66 45 C-65.39003174 44.65743164 -64.78006348 44.31486328 -64.15161133 43.96191406 C-61.36928638 42.39588147 -58.59088302 40.82301474 -55.8125 39.25 C-54.85279297 38.71117187 -53.89308594 38.17234375 -52.90429688 37.6171875 C-48.29563914 35.00189384 -44.10552016 32.36606437 -40 29 C-37.8671875 28.05859375 -37.8671875 28.05859375 -35.875 27.4375 C-32.7812684 26.46845177 -31.21172514 25.35917349 -29 23 C-27.33720673 21.9935725 -25.67016516 20.99414593 -24 20 C-21.30681251 18.02937501 -19.26471266 16.38688773 -17.375 13.625 C-14.25510823 10.17669857 -10.67497391 8.60552728 -6.57421875 6.4921875 C-3.61256109 4.77541478 -1.79850901 2.91187173 0 0 Z " fill="#CE8852" transform="translate(68,80)"/>
<path d="M0 0 C1.21236328 0.02707031 1.21236328 0.02707031 2.44921875 0.0546875 C3.37154297 0.08949219 3.37154297 0.08949219 4.3125 0.125 C4.33568444 9.29589258 4.35344622 18.46677504 4.36431217 27.63769054 C4.36952764 31.8962476 4.37660104 36.15478458 4.38793945 40.41333008 C4.3988158 44.52411916 4.40478691 48.63488894 4.40737724 52.7456913 C4.40922293 54.31294369 4.41282707 55.88019503 4.41823006 57.44743919 C4.42550348 59.6449142 4.42648828 61.84230979 4.42602539 64.03979492 C4.428246 65.28999924 4.43046661 66.54020355 4.43275452 67.82829285 C4.32693637 70.72923534 3.98709133 73.30954235 3.3125 76.125 C-3.3125 76.25 -3.3125 76.25 -6.6875 75.125 C-7.35491563 57.71539225 -7.82096087 40.30384681 -7.91967773 22.88110352 C-7.93156491 21.08451208 -7.94865989 19.2879476 -7.97094727 17.49145508 C-8.00065234 14.96418496 -8.01083213 12.43758036 -8.015625 9.91015625 C-8.03408478 8.77018944 -8.03408478 8.77018944 -8.05291748 7.60719299 C-8.04394531 5.50024414 -8.04394531 5.50024414 -7.6875 2.125 C-4.48369983 -0.01086678 -3.66810033 -0.10632175 0 0 Z " fill="#57C972" transform="translate(133.6875,51.875)"/>
<path d="M0 0 C0 32.01 0 64.02 0 97 C-7 97 -7 97 -15 94 C-15 81.13 -15 68.26 -15 55 C-14.67 55 -14.34 55 -14 55 C-14 65.89 -14 76.78 -14 88 C-10.7 88.33 -7.4 88.66 -4 89 C-3.67 63.92 -3.34 38.84 -3 13 C-11.02050148 13.36620684 -11.02050148 13.36620684 -14 15 C-16.3329866 15.04022391 -18.66706666 15.04320247 -21 15 C-20.97679688 14.31292969 -20.95359375 13.62585937 -20.9296875 12.91796875 C-20.91164063 12.01691406 -20.89359375 11.11585937 -20.875 10.1875 C-20.85179688 9.29417969 -20.82859375 8.40085937 -20.8046875 7.48046875 C-20.81714173 4.74597286 -20.81714173 4.74597286 -23 2 C-21.41990636 1.6516329 -19.83557736 1.32249031 -18.25 1 C-17.36828125 0.814375 -16.4865625 0.62875 -15.578125 0.4375 C-10.42177036 -0.19297131 -5.19475574 0 0 0 Z " fill="#499355" transform="translate(141,39)"/>
<path d="M0 0 C0.33 0 0.66 0 1 0 C2.18276234 11.43959203 2.1153032 22.82631035 2.0625 34.3125 C2.05747279 36.22851445 2.05291206 38.14453018 2.04882812 40.06054688 C2.03792424 44.70706353 2.02072757 49.35351721 2 54 C3.10859375 54.04898438 4.2171875 54.09796875 5.359375 54.1484375 C6.82294065 54.22349215 8.28648112 54.29903881 9.75 54.375 C10.84441406 54.42140625 10.84441406 54.42140625 11.9609375 54.46875 C15.73942656 54.6748494 18.77946668 54.91512843 22 57 C19.10388456 56.85865273 16.2081919 56.7120847 13.3125 56.5625 C12.08756836 56.50352539 12.08756836 56.50352539 10.83789062 56.44335938 C6.78216879 56.22990033 2.9805647 55.82713033 -1 55 C-3.6068127 54.78118981 -6.20220189 54.58987147 -8.8125 54.4375 C-9.85180664 54.37272461 -9.85180664 54.37272461 -10.91210938 54.30664062 C-12.60788686 54.20138547 -14.30392052 54.10027137 -16 54 C-16 53.67 -16 53.34 -16 53 C-13.03 52.505 -13.03 52.505 -10 52 C-10.33 51.67 -10.66 51.34 -11 51 C-11.42455082 43.34821193 -11.36259382 35.81593916 -9.53515625 28.34375 C-8.92466347 25.86370571 -8.92466347 25.86370571 -8.6171875 22.734375 C-7.91284855 18.47267854 -6.62222638 14.75965631 -5.0625 10.75 C-4.79759766 10.04359375 -4.53269531 9.3371875 -4.25976562 8.609375 C-3.06534045 5.4795661 -1.86553563 2.79830344 0 0 Z " fill="#B46A08" transform="translate(110,78)"/>
<path d="M0 0 C0.94875 0.04125 1.8975 0.0825 2.875 0.125 C2.09125 0.681875 1.3075 1.23875 0.5 1.8125 C-2.21204858 4.20168565 -3.08633543 5.72573413 -4.125 9.125 C-2.95195313 9.08503906 -1.77890625 9.04507813 -0.5703125 9.00390625 C6.35278559 9.00525895 13.15747513 10.10490943 20 11.0625 C30.29193455 12.49837867 40.49674874 13.56765981 50.875 14.125 C50.545 16.435 50.215 18.745 49.875 21.125 C39.27346912 20.53908139 28.87480859 19.26698719 18.375 17.75 C15.98889566 17.40967579 13.60261072 17.07063899 11.21630859 16.73170471 C9.64363326 16.50820575 8.07104091 16.28412197 6.49853516 16.05943298 C1.92980294 15.4084215 -2.64139633 14.78737406 -7.21875 14.19921875 C-8.23517578 14.06757324 -9.25160156 13.93592773 -10.29882812 13.80029297 C-12.12494396 13.56587623 -13.95173923 13.33666701 -15.77929688 13.11376953 C-19.63579806 12.61254949 -22.71752161 11.98573744 -26.125 10.125 C-26.125 7.815 -26.125 5.505 -26.125 3.125 C-25.3825 3.3415625 -25.3825 3.3415625 -24.625 3.5625 C-17.19106346 5.23513572 -12.12189813 5.42021966 -5.125 2.125 C-3.125 0.125 -3.125 0.125 0 0 Z " fill="#AA682D" transform="translate(91.125,130.875)"/>
<path d="M0 0 C0.94222412 0.48476807 1.88444824 0.96953613 2.85522461 1.46899414 C3.89614258 1.9981543 4.93706055 2.52731445 6.00952148 3.07250977 C7.08137695 3.62745117 8.15323242 4.18239258 9.25756836 4.75415039 C11.39341276 5.84830675 13.53010185 6.94081619 15.66772461 8.03149414 C16.6088208 8.51739014 17.54991699 9.00328613 18.51953125 9.50390625 C23.81313486 12.10119675 27.05896921 13.04251899 33.00756836 12.44165039 C34.16901367 12.33079102 35.33045898 12.21993164 36.52709961 12.10571289 C37.4075293 12.01032227 38.28795898 11.91493164 39.19506836 11.81665039 C38.31213669 15.85540716 36.81021528 18.56538665 34.19506836 21.81665039 C29.60103181 24.16471352 26.17105992 23.84940336 21.19506836 22.81665039 C20.20506836 22.48665039 19.21506836 22.15665039 18.19506836 21.81665039 C18.52506836 19.83665039 18.85506836 17.85665039 19.19506836 15.81665039 C15.88392002 14.68784982 12.60528579 13.60362364 9.19506836 12.81665039 C8.86506836 13.47665039 8.53506836 14.13665039 8.19506836 14.81665039 C2.28491257 14.28376749 -2.43607655 11.83264239 -7.67993164 9.25415039 C-8.55907227 8.8294043 -9.43821289 8.4046582 -10.34399414 7.96704102 C-12.5010452 6.9236848 -14.65443452 5.87343155 -16.80493164 4.81665039 C-16.80493164 3.82665039 -16.80493164 2.83665039 -16.80493164 1.81665039 C-15.60829194 1.1089929 -14.39681588 0.42639918 -13.17993164 -0.24584961 C-12.50704102 -0.62870117 -11.83415039 -1.01155273 -11.14086914 -1.40600586 C-7.17385123 -2.72613389 -3.76882359 -1.58999808 0 0 Z " fill="#F5EEED" transform="translate(49.804931640625,109.183349609375)"/>
<path d="M0 0 C1.06992133 3.2775759 0.89284845 5.47288516 0.125 8.8125 C-1.38801063 15.5144978 -2.13872079 21.93152344 -2.125 28.8125 C-2.12757812 30.11832031 -2.13015625 31.42414063 -2.1328125 32.76953125 C-2.22567955 35.89038678 -2.22567955 35.89038678 -1 38 C-1.89203125 38.03738281 -2.7840625 38.07476562 -3.703125 38.11328125 C-5.45882812 38.21189453 -5.45882812 38.21189453 -7.25 38.3125 C-8.41015625 38.37050781 -9.5703125 38.42851562 -10.765625 38.48828125 C-14.18197504 39.02879074 -15.43776813 39.79176069 -18 42 C-23.52181215 44.1237739 -27.3218552 44.13562896 -33 43 C-33.99 42.34 -34.98 41.68 -36 41 C-35.505 38.03 -35.505 38.03 -35 35 C-34.67 35.99 -34.34 36.98 -34 38 C-27.61801267 39.06580473 -22.65599329 39.73295557 -17 36 C-15.26997374 33.39212659 -14.19778717 30.9226007 -13 28 C-16.63 28.66 -20.26 29.32 -24 30 C-23.40895235 25.15340923 -22.02055843 21.39251833 -20 17 C-19.34 17 -18.68 17 -18 17 C-17.67 16.01 -17.34 15.02 -17 14 C-16.67 14.66 -16.34 15.32 -16 16 C-11.4975548 16.47620534 -11.4975548 16.47620534 -7.46875 14.90625 C-5.41327607 12.23850724 -4.18127882 9.38464802 -2.8125 6.3125 C-2.28269531 5.13300781 -1.75289062 3.95351562 -1.20703125 2.73828125 C-0.80871094 1.83464844 -0.41039062 0.93101563 0 0 Z " fill="#B72A0F" transform="translate(102,93)"/>
<path d="M0 0 C0.7892688 0.30236572 0.7892688 0.30236572 1.59448242 0.61083984 C15.13103059 5.70038317 27.58805673 8.29363555 42 9 C43.92191115 9.10873799 45.84378591 9.21812074 47.765625 9.328125 C52.50924286 9.58866851 57.25320765 9.80625337 62 10 C62 10.66 62 11.32 62 12 C63.24652344 12.12117187 64.49304688 12.24234375 65.77734375 12.3671875 C71.18639208 12.8969837 76.59346064 13.44523704 82 14 C82.84191895 14.08540039 83.68383789 14.17080078 84.55126953 14.25878906 C86.86854922 14.49710579 89.18432713 14.7465993 91.5 15 C92.19859131 15.0707373 92.89718262 15.14147461 93.61694336 15.21435547 C96.31754671 15.51920312 98.6043285 15.79303337 101.03125 17.0625 C104.62339105 18.77304336 108.25224959 18.50494305 112.02978516 17.41357422 C114.14879745 16.63936748 116.23104911 15.80750403 118.3125 14.9375 C120.86284106 13.88654791 123.39522623 12.91742315 126 12 C126.99 12.495 126.99 12.495 128 13 C125.76787337 16.54212882 124.10260295 17.70664486 120.0625 18.75 C103.44319412 22.28184777 86.97410653 19.32719559 70.43945312 16.85180664 C61.77279996 15.56885581 53.27405073 14.61802973 44.5 14.4375 C28.0571968 14.04341386 13.12657174 10.33794905 -2 4 C-1.34 2.68 -0.68 1.36 0 0 Z " fill="#DED6DA" transform="translate(36,141)"/>
<path d="M0 0 C5.24567161 0.61719875 9.61175061 2.30012544 14.42578125 4.34375 C15.60807564 4.83748108 15.60807564 4.83748108 16.81425476 5.34118652 C18.47028643 6.03418321 20.12503858 6.73024465 21.77856445 7.42919922 C24.31892047 8.50271319 26.86315524 9.56656998 29.40820312 10.62890625 C31.01846291 11.30413034 32.62849717 11.97989257 34.23828125 12.65625 C35.00175369 12.97605835 35.76522614 13.2958667 36.55183411 13.62536621 C41.88326831 15.88326831 41.88326831 15.88326831 43 17 C43.1875 19.4375 43.1875 19.4375 43 22 C41 24 41 24 37.44335938 24.34375 C32.45084346 24.20889307 28.42309943 22.50124371 23.90625 20.5 C23.07411987 20.14486328 22.24198975 19.78972656 21.38464355 19.42382812 C18.75042108 18.29595523 16.12532865 17.14840064 13.5 16 C11.70629704 15.22784618 9.91203096 14.45699906 8.1171875 13.6875 C3.73813317 11.8067192 -0.63284972 9.90824928 -5 8 C-3.35 5.36 -1.7 2.72 0 0 Z " fill="#F9F2EE" transform="translate(74,28)"/>
<path d="M0 0 C2.62055767 0.09710008 5.09772702 0.3152049 7.69140625 0.64453125 C8.46951157 0.73377365 9.24761688 0.82301605 10.04930115 0.91496277 C12.55503205 1.20383514 15.05871385 1.50726599 17.5625 1.8125 C20.81307106 2.2004495 24.06437148 2.58155298 27.31640625 2.95703125 C28.11623932 3.04985382 28.91607239 3.14267639 29.74014282 3.23831177 C37.80995685 4.14495128 45.89042187 4.62103556 54 5 C54.27099997 11.82407811 54.25439828 16.89800323 51 23 C52.32 23.33 53.64 23.66 55 24 C53.35 24 51.7 24 50 24 C50.47805979 19.90234467 50.97203526 15.99479534 52 12 C51.16009521 12.02900391 50.32019043 12.05800781 49.45483398 12.08789062 C38.16152183 12.2996166 27.24138891 10.99721748 16.0625 9.5 C14.20388924 9.25824269 12.34516558 9.01735175 10.48632812 8.77734375 C5.98952474 8.19484897 1.49440016 7.60074456 -3 7 C-2.25 2.25 -2.25 2.25 0 0 Z " fill="#F8A844" transform="translate(90,133)"/>
<path d="M0 0 C1.98 0 3.96 0 6 0 C6 26.07 6 52.14 6 79 C2.37 79 -1.26 79 -5 79 C-5 78.67 -5 78.34 -5 78 C-2.03 78 0.94 78 4 78 C3.67 55.56 3.34 33.12 3 10 C1.68 10 0.36 10 -1 10 C-1.99 14.62 -2.98 19.24 -4 24 C-4.99 24 -5.98 24 -7 24 C-6.67 41.82 -6.34 59.64 -6 78 C-6.66 78 -7.32 78 -8 78 C-8.16375933 70.32331076 -8.28734971 62.64680728 -8.3626852 54.96875763 C-8.39888387 51.40154893 -8.44779636 47.83555352 -8.52807617 44.26904297 C-9.19960548 13.65486094 -9.19960548 13.65486094 -1 1 C-0.67 0.67 -0.34 0.34 0 0 Z " fill="#358BD6" transform="translate(120,54)"/>
<path d="M0 0 C5.21489921 0.53213257 9.23177016 1.87132597 14 4 C15.258125 4.350625 16.51625 4.70125 17.8125 5.0625 C21 6 21 6 23 8 C23.56152018 13.7375844 22.22828262 17.978207 20.125 23.1875 C19.85558594 23.88552734 19.58617188 24.58355469 19.30859375 25.30273438 C15.65301788 34.67349106 15.65301788 34.67349106 13 36 C11.45976004 36.06950541 9.91665012 36.08452357 8.375 36.0625 C7.14910156 36.04896484 7.14910156 36.04896484 5.8984375 36.03515625 C5.27195312 36.02355469 4.64546875 36.01195312 4 36 C4.39695721 32.10981937 4.97532952 28.78285596 6.625 25.25 C8.39134759 22.07257549 8.39134759 22.07257549 7 19 C9 16 9 16 10.91015625 15.5234375 C11.97556641 15.44996094 11.97556641 15.44996094 13.0625 15.375 C16.76850197 15.44379184 16.76850197 15.44379184 18 14 C18.04063832 12.33382885 18.042721 10.66611905 18 9 C16.78441406 8.51789062 15.56882812 8.03578125 14.31640625 7.5390625 C12.73162671 6.90139973 11.14699908 6.26335934 9.5625 5.625 C8.76005859 5.30789062 7.95761719 4.99078125 7.13085938 4.6640625 C6.36708984 4.3546875 5.60332031 4.0453125 4.81640625 3.7265625 C4.10943604 3.44377441 3.40246582 3.16098633 2.67407227 2.86962891 C1 2 1 2 0 0 Z " fill="#D23E1C" transform="translate(98,36)"/>
<path d="M0 0 C5.61711586 0.97050303 10.53065406 3.14920605 15.75 5.375 C17.20599609 5.97441406 17.20599609 5.97441406 18.69140625 6.5859375 C19.61308594 6.9778125 20.53476563 7.3696875 21.484375 7.7734375 C22.32709961 8.12841309 23.16982422 8.48338867 24.03808594 8.84912109 C26 10 26 10 27 13 C25.5625 16.1875 25.5625 16.1875 24 19 C18.39560356 18.02605762 13.46874462 15.88838758 8.25 13.6875 C7.27933594 13.29626953 6.30867188 12.90503906 5.30859375 12.50195312 C4.38691406 12.11330078 3.46523437 11.72464844 2.515625 11.32421875 C1.67290039 10.97447998 0.83017578 10.62474121 -0.03808594 10.2644043 C-2 9 -2 9 -2.87207031 7.02661133 C-3.06079313 4.03693936 -1.66512009 2.39777292 0 0 Z " fill="#FBF1ED" transform="translate(64,50)"/>
<path d="M0 0 C0.33 0 0.66 0 1 0 C1 11.88 1 23.76 1 36 C-10 35 -10 35 -11 34 C-10.67856886 26.22136652 -8.31752483 19.70518734 -5.5 12.5 C-5.08363281 11.40429688 -4.66726562 10.30859375 -4.23828125 9.1796875 C-1.16605885 1.16605885 -1.16605885 1.16605885 0 0 Z " fill="#FBCC1C" transform="translate(110,95)"/>
<path d="M0 0 C0 3.96 0 7.92 0 12 C-13.6332574 15.44419134 -13.6332574 15.44419134 -20 15 C-19.97679688 14.31292969 -19.95359375 13.62585937 -19.9296875 12.91796875 C-19.91164063 12.01691406 -19.89359375 11.11585937 -19.875 10.1875 C-19.85179688 9.29417969 -19.82859375 8.40085937 -19.8046875 7.48046875 C-19.81714173 4.74597286 -19.81714173 4.74597286 -22 2 C-14.53467062 0.38275263 -7.63888618 -0.19841263 0 0 Z " fill="#3F2917" transform="translate(140,39)"/>
<path d="M0 0 C1.00675781 0.13929932 2.01351562 0.27859863 3.05078125 0.42211914 C14.86810129 1.97836398 26.53910799 2.36481105 38.44677734 2.45629883 C54.46525854 2.60215452 54.46525854 2.60215452 61.12890625 5.31616211 C64.39430988 6.50958533 67.53386323 6.45590254 71 6.5625 C76.8812184 6.81646952 82.34019172 7.31198701 88 9 C88.495 9.99 88.495 9.99 89 11 C91.32156597 11.40729228 93.6568787 11.74438677 96 12 C94 14 94 14 90.625 14.25 C87 14 87 14 85.24023438 13.04907227 C82.10953915 11.58300891 78.92869565 11.33010145 75.53125 10.96484375 C74.813927 10.88126114 74.096604 10.79767853 73.35754395 10.71156311 C71.07244581 10.44643393 68.78636402 10.19146021 66.5 9.9375 C64.21387163 9.67827066 61.92802022 9.41688286 59.64245605 9.15272522 C58.22266093 8.98918407 56.80250263 8.82875742 55.38195801 8.67185974 C52.18640348 8.30884829 49.09371569 7.89510851 46 7 C46 6.34 46 5.68 46 5 C44.19982422 5.03480469 44.19982422 5.03480469 42.36328125 5.0703125 C33.04755982 5.19299954 23.84304026 4.9888779 14.5625 4.125 C13.68182861 4.04652832 12.80115723 3.96805664 11.89379883 3.88720703 C7.60848893 3.45372553 3.92293365 2.91716265 0 1 C0 0.67 0 0.34 0 0 Z " fill="#B4ACAD" transform="translate(52,146)"/>
<path d="M0 0 C1.04091797 0.52916016 2.08183594 1.05832031 3.15429688 1.60351562 C4.22615234 2.15845703 5.29800781 2.71339844 6.40234375 3.28515625 C8.53818816 4.37931261 10.67487724 5.47182205 12.8125 6.5625 C13.75359619 7.048396 14.69469238 7.53429199 15.66430664 8.03491211 C18.18518216 9.27177201 20.71899357 10.34297227 23.33984375 11.34765625 C23.00984375 12.00765625 22.67984375 12.66765625 22.33984375 13.34765625 C20.02984375 13.01765625 17.71984375 12.68765625 15.33984375 12.34765625 C15.33984375 11.68765625 15.33984375 11.02765625 15.33984375 10.34765625 C14.71078125 10.2496875 14.08171875 10.15171875 13.43359375 10.05078125 C8.09122475 9.11747582 3.84845249 7.76768538 -0.8984375 5.16796875 C-3.21414066 4.08970342 -5.14597538 4.03338364 -7.66015625 4.34765625 C-7.66015625 5.00765625 -7.66015625 5.66765625 -7.66015625 6.34765625 C-6.67015625 6.67765625 -5.68015625 7.00765625 -4.66015625 7.34765625 C-4.99015625 8.00765625 -5.32015625 8.66765625 -5.66015625 9.34765625 C-9.20259077 7.98174456 -12.58643554 6.43834141 -15.97265625 4.72265625 C-16.85566406 4.27664062 -17.73867188 3.830625 -18.6484375 3.37109375 C-19.31230469 3.03335938 -19.97617187 2.695625 -20.66015625 2.34765625 C-19.42598132 -0.12069362 -18.38935115 -0.56474949 -15.97265625 -1.83984375 C-14.97685547 -2.38705078 -14.97685547 -2.38705078 -13.9609375 -2.9453125 C-8.94684419 -4.48614593 -4.45072622 -2.28986915 0 0 Z " fill="#D5D1CF" transform="translate(52.66015625,110.65234375)"/>
<path d="M0 0 C2.37587624 0.11486425 4.75015171 0.24158156 7.125 0.375 C8.12273437 0.42140625 8.12273437 0.42140625 9.140625 0.46875 C13.39016506 0.71872294 17.07056679 1.33984433 21 3 C22.20139488 5.40278975 22.12320302 6.88525367 22.12025452 9.56838989 C22.12162918 10.53035278 22.12300385 11.49231567 22.12442017 12.48342896 C22.12082489 13.5422226 22.11722961 14.60101624 22.11352539 15.69189453 C22.11367142 16.80409363 22.11381744 17.91629272 22.1139679 19.06219482 C22.1132691 22.7524203 22.10547824 26.4425958 22.09765625 30.1328125 C22.09579195 32.68586194 22.0943681 35.23891174 22.09336853 37.79196167 C22.08993553 43.83386916 22.08204747 49.87575508 22.07201904 55.91765392 C22.06085045 62.79543876 22.05534557 69.67322445 22.05032361 76.55101609 C22.03986466 90.7006874 22.02226986 104.85034271 22 119 C21.67 119 21.34 119 21 119 C21 82.04 21 45.08 21 7 C16.05 6.67 11.1 6.34 6 6 C3.525 5.01 3.525 5.01 1 4 C0.1875 1.875 0.1875 1.875 0 0 Z " fill="#DD9B62" transform="translate(145,32)"/>
<path d="M0 0 C0.7892688 0.30236572 0.7892688 0.30236572 1.59448242 0.61083984 C15.13103059 5.70038317 27.58805673 8.29363555 42 9 C43.92191115 9.10873799 45.84378591 9.21812074 47.765625 9.328125 C52.50924286 9.58866851 57.25320765 9.80625337 62 10 C62 10.66 62 11.32 62 12 C63.32 12.33 64.64 12.66 66 13 C62.01647832 13.04987075 58.0330805 13.08593964 54.04931641 13.10986328 C52.03671881 13.12472879 50.02420812 13.150157 48.01171875 13.17578125 C41.24183283 13.20980078 35.48825397 12.86826956 29 11 C26.66910115 10.86472462 24.33461159 10.78126712 22 10.75 C13.27359363 10.30181599 5.96545237 7.42273709 -2 4 C-1.34 2.68 -0.68 1.36 0 0 Z " fill="#BDB4BC" transform="translate(36,141)"/>
<path d="M0 0 C1.1854683 2.80201597 1.01522667 3.95622331 0 6.875 C-2.4796982 10.74952844 -5.45745053 13.13481713 -9 16 C-12.40320391 19.1006969 -14.8664162 21.46566481 -16 26 C-15.70480232 28.7336432 -15.70480232 28.7336432 -15 31 C-16.4835001 30.57742724 -17.96176424 30.13643678 -19.4375 29.6875 C-20.26121094 29.44386719 -21.08492187 29.20023438 -21.93359375 28.94921875 C-22.61550781 28.63597656 -23.29742187 28.32273437 -24 28 C-24.33 27.01 -24.66 26.02 -25 25 C-21.16770128 17.33540257 -16.63639034 11.81029 -9 8 C-5.23168367 5.65368983 -2.41530475 3.75714072 0 0 Z " fill="#CF3010" transform="translate(68,80)"/>
<path d="M0 0 C0 4.13005467 -1.3528336 6.92630806 -4 10 C-8.38916312 12.85486436 -13.24488006 14.6867942 -18.0625 16.6875 C-21.10044858 17.67241093 -21.10044858 17.67241093 -22 20 C-23.66188114 20.97831493 -25.32784584 21.9505886 -27.01708984 22.88085938 C-30.86409594 25.05208271 -34.51072022 27.55381322 -38.18945312 29.99609375 C-42.78513029 33 -42.78513029 33 -45 33 C-45 31.35 -45 29.7 -45 28 C-44.39003174 27.65743164 -43.78006348 27.31486328 -43.15161133 26.96191406 C-40.36928638 25.39588147 -37.59088302 23.82301474 -34.8125 22.25 C-33.85279297 21.71117188 -32.89308594 21.17234375 -31.90429688 20.6171875 C-27.29563914 18.00189384 -23.10552016 15.36606437 -19 12 C-16.8671875 11.05859375 -16.8671875 11.05859375 -14.875 10.4375 C-11.7792593 9.46782247 -10.21584892 8.35663491 -8 6 C-6.33333333 5 -4.66666667 4 -3 3 C-1.24850835 1.41754725 -1.24850835 1.41754725 0 0 Z " fill="#F0985A" transform="translate(47,97)"/>
<path d="M0 0 C1.32 0.33 2.64 0.66 4 1 C2.5297918 5.71134901 0.94267288 10.2300564 -1.1875 14.6875 C-2.83976028 18.26844434 -3.40984442 21.00401695 -3 25 C-0.03 25 2.94 25 6 25 C5 28 5 28 3 29 C0.95053494 29.02988803 -1.07774318 28.93392724 -3.125 28.83984375 C-5.24791868 28.81834421 -5.24791868 28.81834421 -7 31 C-7.33 30.67 -7.66 30.34 -8 30 C-8.61488281 31.49853516 -8.61488281 31.49853516 -9.2421875 33.02734375 C-9.7861073 34.33087569 -10.33039735 35.63425319 -10.875 36.9375 C-11.14441406 37.59685547 -11.41382812 38.25621094 -11.69140625 38.93554688 C-13.7734375 43.88671875 -13.7734375 43.88671875 -16 45 C-15.45962516 38.78568933 -13.44121655 33.70705808 -11 28 C-10.18661036 26.04203601 -9.37414012 24.08368987 -8.5625 22.125 C-7.25150664 18.98348649 -5.93426727 15.84496651 -4.60546875 12.7109375 C-3.93451172 11.12152344 -3.93451172 11.12152344 -3.25 9.5 C-2.84265625 8.5409375 -2.4353125 7.581875 -2.015625 6.59375 C-1.1545842 4.39478426 -0.49971279 2.30302417 0 0 Z " fill="#FC8345" transform="translate(103,50)"/>
<path d="M0 0 C13.65846142 0.53571649 27.08654496 2.16763087 40.625 4 C42.70435318 4.2765978 44.78378002 4.55264249 46.86328125 4.828125 C54.58015378 5.85346481 62.29526165 6.88675786 70 8 C70 9.32 70 10.64 70 12 C68.7625 11.731875 67.525 11.46375 66.25 11.1875 C53.0944106 8.57491112 39.80162102 6.84212428 26.44775391 5.64648438 C25.66062012 5.57494141 24.87348633 5.50339844 24.0625 5.4296875 C23.02802734 5.34050049 23.02802734 5.34050049 21.97265625 5.24951172 C19.92218594 4.99015768 18.00200567 4.50597654 16 4 C12.66774724 3.70047166 9.33494402 3.49348112 5.99609375 3.28125 C3 3 3 3 0 2 C0 1.34 0 0.68 0 0 Z " fill="#945520" transform="translate(70,138)"/>
<path d="M0 0 C0.33 0 0.66 0 1 0 C1 13.2 1 26.4 1 40 C0.67 40 0.34 40 0 40 C0 33.07 0 26.14 0 19 C-3.3 19 -6.6 19 -10 19 C-10 15.04 -10 11.08 -10 7 C-6.7 6.34 -3.4 5.68 0 5 C0 3.35 0 1.7 0 0 Z " fill="#6CD783" transform="translate(137,56)"/>
<path d="M0 0 C5.68026475 0.1703492 10.74943772 2.90926596 15.859375 5.171875 C30.50460807 11.93598916 30.50460807 11.93598916 46.109375 15.421875 C46.109375 15.751875 46.109375 16.081875 46.109375 16.421875 C39.52627573 16.92611239 34.69406816 16.27504004 28.7265625 13.39453125 C25.88976508 12.34025878 23.22968262 12.11184731 20.23681641 11.79516602 C16.50892752 11.14105285 13.25073451 9.48735651 9.859375 7.859375 C4.25996502 5.17356821 4.25996502 5.17356821 -1.890625 4.421875 C-2.344375 5.246875 -2.798125 6.071875 -3.265625 6.921875 C-3.801875 7.746875 -4.338125 8.571875 -4.890625 9.421875 C-8.078125 9.734375 -8.078125 9.734375 -10.890625 9.421875 C-10.271875 9.380625 -9.653125 9.339375 -9.015625 9.296875 C-8.314375 9.008125 -7.613125 8.719375 -6.890625 8.421875 C-5.71979622 5.49273335 -5.71979622 5.49273335 -4.890625 2.421875 C-2.890625 0.421875 -2.890625 0.421875 0 0 Z " fill="#F44D27" transform="translate(75.890625,24.578125)"/>
<path d="M0 0 C1.03337769 3.20210515 0.91593578 5.27155348 0.1328125 8.5234375 C-1.10763839 14.20032449 -1.65386524 19.84008301 -2.125 25.625 C-2.21136719 26.62917969 -2.29773438 27.63335937 -2.38671875 28.66796875 C-2.5961689 31.11155382 -2.79880718 33.55572121 -3 36 C-5.97 36 -8.94 36 -12 36 C-10.56593506 30.07719519 -8.86860262 24.47085159 -6.4375 18.875 C-4.57531738 14.58194425 -3.25130343 10.54602428 -2.45703125 5.9375 C-1.9407321 3.74874464 -1.06908212 1.97098267 0 0 Z " fill="#984B09" transform="translate(102,93)"/>
<path d="M0 0 C3.48670834 1.1094072 6.77484237 2.26337666 10 4 C9 6 9 6 7 8 C6.08307039 10.75078884 5.89113917 12.35948913 5.9375 15.1875 C5.958125 16.445625 5.97875 17.70375 6 19 C4.35 19.33 2.7 19.66 1 20 C0.67 18.68 0.34 17.36 0 16 C-1.65 16 -3.3 16 -5 16 C-4.731875 15.505 -4.46375 15.01 -4.1875 14.5 C-3.16661064 12.35075924 -2.24604907 10.21271232 -1.375 8 C-1.11460938 7.34 -0.85421875 6.68 -0.5859375 6 C0.18743426 3.70756838 0.18743426 3.70756838 0 0 Z " fill="#F95B37" transform="translate(59,121)"/>
<path d="M0 0 C2.40404689 0.87016286 4.66146454 1.89263 6.95898438 3.015625 C7.87550781 3.4590625 8.79203125 3.9025 9.73632812 4.359375 C12.61523438 5.765625 12.61523438 5.765625 15.49414062 7.171875 C16.41066406 7.6153125 17.3271875 8.05875 18.27148438 8.515625 C19.52155273 9.12664062 19.52155273 9.12664062 20.796875 9.75 C22.9048885 10.67347685 24.86931777 11.29007994 27.11523438 11.765625 C26.78523438 13.415625 26.45523438 15.065625 26.11523438 16.765625 C18.93316323 14.10130828 12.2297005 10.81189457 5.50976562 7.15625 C1.78571237 5.63063095 -0.89985326 5.50232711 -4.88476562 5.765625 C-4.88476562 4.445625 -4.88476562 3.125625 -4.88476562 1.765625 C-1.88476562 -0.234375 -1.88476562 -0.234375 0 0 Z " fill="#C13019" transform="translate(30.884765625,112.234375)"/>
<path d="M0 0 C1.98 0.66 3.96 1.32 6 2 C6 2.99 6 3.98 6 5 C1.77777778 8 1.77777778 8 -1 8 C-1.66 11.96 -2.32 15.92 -3 20 C-3.33 20 -3.66 20 -4 20 C-4 17.03 -4 14.06 -4 11 C-5.4540625 11.0309375 -5.4540625 11.0309375 -6.9375 11.0625 C-10 11 -10 11 -11 10 C-11.04080783 8.00041636 -11.04254356 5.99954746 -11 4 C-5.555 3.01 -5.555 3.01 0 2 C0 1.34 0 0.68 0 0 Z " fill="#F2A951" transform="translate(41,122)"/>
<path d="M0 0 C0.33 0 0.66 0 1 0 C2.18276234 11.43959203 2.1153032 22.82631035 2.0625 34.3125 C2.05747279 36.22851445 2.05291206 38.14453018 2.04882812 40.06054688 C2.03792424 44.70706353 2.02072757 49.35351721 2 54 C3.10859375 54.04898438 4.2171875 54.09796875 5.359375 54.1484375 C6.82294065 54.22349215 8.28648112 54.29903881 9.75 54.375 C10.84441406 54.42140625 10.84441406 54.42140625 11.9609375 54.46875 C15.73942656 54.6748494 18.77946668 54.91512843 22 57 C19.10388456 56.85865273 16.2081919 56.7120847 13.3125 56.5625 C12.08756836 56.50352539 12.08756836 56.50352539 10.83789062 56.44335938 C6.78216879 56.22990033 2.9805647 55.82713033 -1 55 C-3.6068127 54.78118981 -6.20220189 54.58987147 -8.8125 54.4375 C-9.85180664 54.37272461 -9.85180664 54.37272461 -10.91210938 54.30664062 C-12.60788686 54.20138547 -14.30392052 54.10027137 -16 54 C-16 53.67 -16 53.34 -16 53 C-14.29278846 52.80254671 -12.58413679 52.61752907 -10.875 52.4375 C-9.44800781 52.28087891 -9.44800781 52.28087891 -7.9921875 52.12109375 C-5 52 -5 52 1 53 C0.67 41.45 0.34 29.9 0 18 C-0.33 18 -0.66 18 -1 18 C-1.02684312 15.18743719 -1.04676188 12.37512759 -1.0625 9.5625 C-1.07087891 8.76005859 -1.07925781 7.95761719 -1.08789062 7.13085938 C-1.0965143 5.08704779 -1.0522815 3.04316098 -1 1 C-0.67 0.67 -0.34 0.34 0 0 Z " fill="#DC8F27" transform="translate(110,78)"/>
<path d="M0 0 C0.66 0.33 1.32 0.66 2 1 C-0.23212663 4.54212882 -1.89739705 5.70664486 -5.9375 6.75 C-19.30191712 9.71447071 -33.65367647 8.47481496 -47 6 C-47 5.67 -47 5.34 -47 5 C-30.05309124 2.39278327 -30.05309124 2.39278327 -25.078125 5.01171875 C-21.42970141 6.74677734 -17.81680767 6.5248944 -13.97021484 5.41357422 C-11.85120255 4.63936748 -9.76895089 3.80750403 -7.6875 2.9375 C-5.13715894 1.88654791 -2.60477377 0.91742315 0 0 Z " fill="#E3E1E2" transform="translate(162,153)"/>
<path d="M0 0 C0.33 0 0.66 0 1 0 C1 10.89 1 21.78 1 33 C4.3 33.33 7.6 33.66 11 34 C11 32.35 11 30.7 11 29 C11.33 29 11.66 29 12 29 C12 32.63 12 36.26 12 40 C10.39125 40.020625 8.7825 40.04125 7.125 40.0625 C5.76761719 40.07990234 5.76761719 40.07990234 4.3828125 40.09765625 C2 40 2 40 0 39 C0 26.13 0 13.26 0 0 Z " fill="#43B368" transform="translate(126,94)"/>
<path d="M0 0 C0.99 0 1.98 0 3 0 C2.01 4.62 1.02 9.24 0 14 C-0.99 14 -1.98 14 -3 14 C-2.67 31.82 -2.34 49.64 -2 68 C-2.66 68 -3.32 68 -4 68 C-4.09292643 60.1675771 -4.1638791 52.3352848 -4.20724869 44.50244808 C-4.22807046 40.86479575 -4.25628732 37.22752224 -4.30175781 33.59008789 C-4.34541134 30.07576875 -4.36917776 26.56181259 -4.37950897 23.04724312 C-4.39043132 21.06253705 -4.42162628 19.07797579 -4.45318604 17.0934906 C-4.4548966 10.18192529 -4.21516742 5.59712974 0 0 Z " fill="#6481B3" transform="translate(116,64)"/>
<path d="M0 0 C-0.62111151 4.03722478 -2.46372806 6.84679705 -5 10 C-8.81513233 11.78580662 -11.84903464 12.0702363 -16 12 C-13.42875732 2.83148992 -13.42875732 2.83148992 -10.09375 0.890625 C-6.64485722 0.04127081 -3.56637096 0 0 0 Z " fill="#BAB1B0" transform="translate(89,121)"/>
<path d="M0 0 C0.33 0 0.66 0 1 0 C1 22.44 1 44.88 1 68 C2.32 68.33 3.64 68.66 5 69 C5 69.99 5 70.98 5 72 C1.7 73.32 -1.6 74.64 -5 76 C-3 72 -3 72 -1 70 C-0.66688124 66.96423831 -0.66688124 66.96423831 -0.68115234 63.34716797 C-0.67110672 62.66412598 -0.6610611 61.98108398 -0.65071106 61.27734375 C-0.6197763 59.01563371 -0.60281577 56.75404256 -0.5859375 54.4921875 C-0.56723408 52.92561818 -0.5476613 51.35905901 -0.5272522 49.79251099 C-0.47583748 45.66617817 -0.43626197 41.53981266 -0.39910889 37.41333008 C-0.35912759 33.2038559 -0.30800854 28.99451882 -0.2578125 24.78515625 C-0.16094272 16.52353101 -0.07657355 8.26183815 0 0 Z " fill="#F9F4ED" transform="translate(167,81)"/>
<path d="M0 0 C1.97639152 0.96739164 3.92019846 1.97342682 5.8515625 3.02734375 C5.8515625 3.35734375 5.8515625 3.68734375 5.8515625 4.02734375 C4.8203125 3.96546875 3.7890625 3.90359375 2.7265625 3.83984375 C-1.41486874 4.04023558 -3.60568433 4.96760354 -7.1484375 7.02734375 C-8.1384375 7.52234375 -8.1384375 7.52234375 -9.1484375 8.02734375 C-11.09375 7.25 -11.09375 7.25 -13.2734375 6.08984375 C-13.99789062 5.70957031 -14.72234375 5.32929687 -15.46875 4.9375 C-16.02304687 4.63714844 -16.57734375 4.33679688 -17.1484375 4.02734375 C-13.88707524 -2.49538076 -5.81703915 -2.63353227 0 0 Z " fill="#C2B7B7" transform="translate(49.1484375,108.97265625)"/>
<path d="M0 0 C0.33 0 0.66 0 1 0 C1 11.88 1 23.76 1 36 C-10 35 -10 35 -11 34 C-11.04080783 32.00041636 -11.04254356 29.99954746 -11 28 C-7.37 28.66 -3.74 29.32 0 30 C-0.05329468 28.69011108 -0.05329468 28.69011108 -0.10766602 27.35375977 C-0.23662253 24.12424949 -0.36097912 20.89460491 -0.48217773 17.66479492 C-0.53566026 16.26498319 -0.59099434 14.86524096 -0.64819336 13.46557617 C-0.72992949 11.4577104 -0.80453025 9.44955813 -0.87890625 7.44140625 C-0.9260376 6.23170166 -0.97316895 5.02199707 -1.02172852 3.77563477 C-1 1 -1 1 0 0 Z " fill="#F9BE19" transform="translate(110,95)"/>
<path d="M0 0 C2.37587624 0.11486425 4.75015171 0.24158156 7.125 0.375 C8.12273437 0.42140625 8.12273437 0.42140625 9.140625 0.46875 C13.39821262 0.71919633 17.02085783 1.47528197 21 3 C21 4.32 21 5.64 21 7 C18.60325733 6.88543872 16.20818782 6.75871281 13.8125 6.625 C13.13896484 6.5940625 12.46542969 6.563125 11.77148438 6.53125 C7.84338803 6.30131265 4.43235555 6.00382339 1 4 C0.1875 1.875 0.1875 1.875 0 0 Z " fill="#F19C44" transform="translate(145,32)"/>
<path d="M0 0 C5.21489921 0.53213257 9.23177016 1.87132597 14 4 C15.258125 4.350625 16.51625 4.70125 17.8125 5.0625 C21 6 21 6 23 8 C23.33870968 14.32258065 23.33870968 14.32258065 22 17 C17.71 17 13.42 17 9 17 C9 16.67 9 16.34 9 16 C11.05078125 15.77213542 13.1015625 15.54427083 15.15234375 15.31640625 C17.01140229 15.18113386 17.01140229 15.18113386 18 14 C18.04063832 12.33382885 18.042721 10.66611905 18 9 C16.78441406 8.51789062 15.56882812 8.03578125 14.31640625 7.5390625 C12.73162671 6.90139973 11.14699908 6.26335934 9.5625 5.625 C8.76005859 5.30789062 7.95761719 4.99078125 7.13085938 4.6640625 C6.36708984 4.3546875 5.60332031 4.0453125 4.81640625 3.7265625 C4.10943604 3.44377441 3.40246582 3.16098633 2.67407227 2.86962891 C1 2 1 2 0 0 Z " fill="#F44620" transform="translate(98,36)"/>
<path d="M0 0 C7.82242991 0.5046729 7.82242991 0.5046729 11 4 C13.16299211 3.77242269 13.16299211 3.77242269 15 3 C15.33 4.32 15.66 5.64 16 7 C8.90294338 8.34495828 2.2274605 9.24091535 -5 9 C-3.68 8.67 -2.36 8.34 -1 8 C-1.020625 6.865625 -1.04125 5.73125 -1.0625 4.5625 C-1 1 -1 1 0 0 Z " fill="#B9732E" transform="translate(44,134)"/>
<path d="M0 0 C0.515625 0.2475 1.03125 0.495 1.5625 0.75 C0.386875 1.20375 -0.78875 1.6575 -2 2.125 C-8.66623323 5.48740587 -11.73658582 11.81892971 -15.37109375 18.08203125 C-20.0382939 26.04265529 -24.04033844 30.99145076 -32.25 35.1875 C-34.4375 35.75 -34.4375 35.75 -37.4375 34.75 C-36.36822266 34.25693359 -36.36822266 34.25693359 -35.27734375 33.75390625 C-26.33707881 29.31385543 -22.07721331 24.18227262 -17.03515625 15.75390625 C-16.605979 15.04411621 -16.17680176 14.33432617 -15.73461914 13.60302734 C-14.88878584 12.19091717 -14.06017427 10.76830423 -13.25170898 9.33447266 C-10.30960367 4.36110062 -6.42903925 -0.65938864 0 0 Z " fill="#FAB160" transform="translate(39.4375,62.25)"/>
<path d="M0 0 C0.33 1.32 0.66 2.64 1 4 C1.66 3.67 2.32 3.34 3 3 C1.71434965 8.65686155 -0.6237788 13.43034 -3.26953125 18.578125 C-5.21916336 22.43337947 -7.05749402 26.33122079 -8.875 30.25 C-9.18526123 30.91837891 -9.49552246 31.58675781 -9.81518555 32.27539062 C-10.54481702 33.8496308 -11.27261655 35.42471986 -12 37 C-13.21806084 34.09918459 -13.01604116 33.04138948 -11.85546875 30.046875 C-11.30503906 28.95890625 -10.75460938 27.8709375 -10.1875 26.75 C-8.1330944 22.51396643 -6.50444209 18.71253235 -5.56640625 14.12109375 C-4.26251374 9.23824109 -2.01867134 4.62291148 0 0 Z " fill="#FB884D" transform="translate(55,42)"/>
<path d="M0 0 C0 4.13005467 -1.3528336 6.92630806 -4 10 C-7.17420126 12.0646109 -10.51403768 13.53901117 -14 15 C-14.68191406 15.309375 -15.36382812 15.61875 -16.06640625 15.9375 C-18.9913608 17.25151846 -21.85072158 18.37014432 -25 19 C-23.74245909 15.08765051 -21.33490667 13.75521521 -17.80859375 11.87109375 C-16 11 -16 11 -13.25 9.9375 C-10.83264836 8.93027015 -9.79152974 7.86617682 -8 6 C-5.5 4.5 -5.5 4.5 -3 3 C-1.24850835 1.41754725 -1.24850835 1.41754725 0 0 Z " fill="#E58A3B" transform="translate(47,97)"/>
<path d="M0 0 C9.61256202 -0.34015619 18.90267439 0.02792919 28.4375 1.375 C29.8136145 1.56412964 29.8136145 1.56412964 31.2175293 1.75708008 C37.74264056 2.74264056 37.74264056 2.74264056 40 5 C30.97412904 5.22596061 22.2113365 4.5383177 13.25 3.5 C11.96867187 3.35691406 10.68734375 3.21382812 9.3671875 3.06640625 C6.24407989 2.71680465 3.12177907 2.36123993 0 2 C0 1.34 0 0.68 0 0 Z " fill="#FAC673" transform="translate(92,132)"/>
<path d="M0 0 C1.32 0 2.64 0 4 0 C5.18681726 3.56045177 5.09689832 6.43808337 5.0625 10.1875 C5.05347656 11.45980469 5.04445313 12.73210937 5.03515625 14.04296875 C5.02355469 15.01878906 5.01195313 15.99460937 5 17 C4.67 15.68 4.34 14.36 4 13 C1.69 13 -0.62 13 -3 13 C-2.45144652 8.428721 -1.58255197 4.32564205 0 0 Z " fill="#58C1F2" transform="translate(119,64)"/>
<path d="M0 0 C7.05166369 -0.75695825 12.38829609 1.93312613 18.75 4.75 C33.39523307 11.51411416 33.39523307 11.51411416 49 15 C49 15.33 49 15.66 49 16 C38.74774354 17.13459668 30.86203175 13.08406621 21.6875 9.0625 C19.38298308 8.06926936 17.07638955 7.08118991 14.76777649 6.09751892 C13.34029904 5.48752172 11.91547287 4.87126975 10.49382019 4.24781799 C7.01757041 2.74469968 3.75310945 1.56018583 0 1 C0 0.67 0 0.34 0 0 Z " fill="#FA7B46" transform="translate(73,25)"/>
<path d="M0 0 C0.66 0 1.32 0 2 0 C1.57405412 1.44096586 1.13373367 2.87768712 0.6875 4.3125 C0.44386719 5.11300781 0.20023438 5.91351563 -0.05078125 6.73828125 C-1.06551592 9.15610584 -1.96807997 10.36649566 -4 12 C-10.14603336 14.2896987 -16.65158555 15.11613815 -23 13 C-22.67 11.02 -22.34 9.04 -22 7 C-21.67 7.99 -21.34 8.98 -21 10 C-14.61801267 11.06580473 -9.65599329 11.73295557 -4 8 C-2.31149572 5.45471758 -1.08936091 2.84857728 0 0 Z " fill="#E33D1B" transform="translate(89,121)"/>
<path d="M0 0 C10.37931753 1.09501218 20.70102592 2.28956968 31 4 C31 4.99 31 5.98 31 7 C9.86894075 4.6673506 9.86894075 4.6673506 1 2 C0.67 1.34 0.34 0.68 0 0 Z " fill="#998E87" transform="translate(109,148)"/>
<path d="M0 0 C2.475 0.495 2.475 0.495 5 1 C5 1.66 5 2.32 5 3 C7.97 3 10.94 3 14 3 C13.5020163 6.73487777 13.12508244 8.81237635 11 12 C8.03 11.505 8.03 11.505 5 11 C5.33 9.02 5.66 7.04 6 5 C5.38125 4.731875 4.7625 4.46375 4.125 4.1875 C2 3 2 3 0 0 Z " fill="#E1DAD9" transform="translate(63,120)"/>
<path d="M0 0 C7.67586151 -0.14302848 15.33080554 0.06454099 23 0.375 C23.91998779 0.40585693 24.83997559 0.43671387 25.7878418 0.46850586 C27.09942261 0.52663452 27.09942261 0.52663452 28.4375 0.5859375 C29.61119141 0.63306885 29.61119141 0.63306885 30.80859375 0.68115234 C33.21158907 1.03078602 34.8994817 1.80679556 37 3 C33.01647832 3.04987075 29.0330805 3.08593964 25.04931641 3.10986328 C23.03671881 3.12472879 21.02420812 3.150157 19.01171875 3.17578125 C12.3167172 3.20942447 6.38969719 3.07013149 0 1 C0 0.67 0 0.34 0 0 Z " fill="#CFC7CD" transform="translate(65,151)"/>
<path d="M0 0 C0.66 0 1.32 0 2 0 C1.34 1.98 0.68 3.96 0 6 C3.3 6 6.6 6 10 6 C10.495 6.99 10.495 6.99 11 8 C10.10796875 8.03738281 9.2159375 8.07476562 8.296875 8.11328125 C6.54117188 8.21189453 6.54117188 8.21189453 4.75 8.3125 C3.58984375 8.37050781 2.4296875 8.42851562 1.234375 8.48828125 C-2.18197504 9.02879074 -3.43776813 9.79176069 -6 12 C-11.4919784 14.11229938 -15.3517359 14.16860636 -21 13 C-21.33 12.34 -21.66 11.68 -22 11 C-21.05640625 11.05220703 -21.05640625 11.05220703 -20.09375 11.10546875 C-14.41576865 11.28504346 -8.8057746 11.39947651 -4 8 C-2.23510865 5.47231663 -1.04467145 2.89346499 0 0 Z " fill="#8F2E11" transform="translate(90,123)"/>
<path d="M0 0 C0.99 0 1.98 0 3 0 C2.57534294 7.36072234 0.01651083 13.32137824 -3 20 C-3.33 20 -3.66 20 -4 20 C-4.33358143 13.10598384 -3.47557267 7.46470791 -1 1 C-0.67 0.67 -0.34 0.34 0 0 Z " fill="#C97A09" transform="translate(106,94)"/>
<path d="M0 0 C0.8971875 0.309375 0.8971875 0.309375 1.8125 0.625 C1.1525 0.625 0.4925 0.625 -0.1875 0.625 C-0.435 1.2025 -0.6825 1.78 -0.9375 2.375 C-2.36038843 4.93619917 -4.1208048 6.5583048 -6.1875 8.625 C-7.2284066 10.26642963 -8.23254326 11.93212215 -9.1875 13.625 C-10.1775 15.11 -10.1775 15.11 -11.1875 16.625 C-12.1775 16.625 -13.1675 16.625 -14.1875 16.625 C-12.81644307 12.82560343 -11.07189988 9.73809316 -8.75 6.4375 C-8.15316406 5.57769531 -7.55632813 4.71789062 -6.94140625 3.83203125 C-3.42898827 -0.58782656 -3.42898827 -0.58782656 0 0 Z " fill="#C1280B" transform="translate(57.1875,90.375)"/>
<path d="M0 0 C0.33 0 0.66 0 1 0 C1 2.97 1 5.94 1 9 C-0.64574566 9.02688151 -2.29161413 9.04634123 -3.9375 9.0625 C-4.85402344 9.07410156 -5.77054687 9.08570313 -6.71484375 9.09765625 C-9 9 -9 9 -10 8 C-10.04080783 6.00041636 -10.04254356 3.99954746 -10 2 C-5.05 2.99 -5.05 2.99 0 4 C0 2.68 0 1.36 0 0 Z " fill="#3E9DEF" transform="translate(123,123)"/>
<path d="M0 0 C1.98 0.66 3.96 1.32 6 2 C6 2.99 6 3.98 6 5 C5 6 5 6 3.14453125 6.1328125 C-1.34984745 6.11775595 -5.5761669 5.90745294 -10 5 C-10 6.65 -10 8.3 -10 10 C-10.33 10 -10.66 10 -11 10 C-11 8.02 -11 6.04 -11 4 C-5.555 3.01 -5.555 3.01 0 2 C0 1.34 0 0.68 0 0 Z " fill="#F8C177" transform="translate(41,122)"/>
<path d="M0 0 C5.94 2.475 5.94 2.475 12 5 C12 5.66 12 6.32 12 7 C13.2065625 7.185625 13.2065625 7.185625 14.4375 7.375 C15.283125 7.58125 16.12875 7.7875 17 8 C17.33 8.66 17.66 9.32 18 10 C13.27497299 9.36757331 9.09429803 8.08186437 4.625 6.4375 C3.98433594 6.20353516 3.34367187 5.96957031 2.68359375 5.72851562 C1.1206839 5.15700381 -0.43990727 4.57915771 -2 4 C-1.34 2.68 -0.68 1.36 0 0 Z " fill="#CDC8CC" transform="translate(36,141)"/>
<path d="M0 0 C1.2065625 0.0309375 1.2065625 0.0309375 2.4375 0.0625 C2.77028764 6.87848387 2.67951565 11.98372066 -0.5625 18.0625 C0.7575 18.3925 2.0775 18.7225 3.4375 19.0625 C1.7875 19.0625 0.1375 19.0625 -1.5625 19.0625 C-0.5625 10.49107143 -0.5625 10.49107143 0.4375 7.0625 C-0.8825 7.0625 -2.2025 7.0625 -3.5625 7.0625 C-3.60504356 5.06295254 -3.60330783 3.06208364 -3.5625 1.0625 C-2.5625 0.0625 -2.5625 0.0625 0 0 Z " fill="#EB9C44" transform="translate(141.5625,137.9375)"/>
<path d="M0 0 C-1.64279399 2.71369382 -2.64784561 3.86018167 -5.63671875 5.046875 C-11.57284795 6.41499697 -16.90635425 7.35155649 -23 7 C-23 6.67 -23 6.34 -23 6 C-20.9316397 5.31054657 -18.86296863 4.62201506 -16.79296875 3.9375 C-14.79037214 3.26529974 -12.79356409 2.5757588 -10.80078125 1.875 C-9.19783203 1.318125 -9.19783203 1.318125 -7.5625 0.75 C-6.55316406 0.39421875 -5.54382813 0.0384375 -4.50390625 -0.328125 C-2 -1 -2 -1 0 0 Z " fill="#CCC1C0" transform="translate(164,154)"/>
<path d="M0 0 C10.0932704 0.54403443 19.99826344 1.53875338 30 3 C30 3.33 30 3.66 30 4 C26.31265225 4.08776185 22.62557653 4.14064603 18.9375 4.1875 C17.37999023 4.22520508 17.37999023 4.22520508 15.79101562 4.26367188 C9.70840838 4.32160147 5.37885697 3.90687164 0 1 C0 0.67 0 0.34 0 0 Z " fill="#978883" transform="translate(76,144)"/>
<path d="M0 0 C0.66 1.32 1.32 2.64 2 4 C4.97 4 7.94 4 11 4 C10 7 10 7 8 8 C5.95053494 8.02988803 3.92225682 7.93392724 1.875 7.83984375 C-0.24791868 7.81834421 -0.24791868 7.81834421 -2 10 C-1.125 2.25 -1.125 2.25 0 0 Z " fill="#E14F2D" transform="translate(98,71)"/>
<path d="M0 0 C1.32 0.66 2.64 1.32 4 2 C4.4375 4.625 4.4375 4.625 4 8 C1.156443 11.32512714 -1.85171838 13.61723946 -6 15 C-5.52570343 10.73133091 -2.96478822 8.89066852 0 6 C1.33333333 3 1.33333333 3 0 0 Z " fill="#FBC892" transform="translate(64,74)"/>
<path d="M0 0 C6.74586274 -0.22696361 13.58481758 -0.41688268 20 2 C20.33 2.66 20.66 3.32 21 4 C23.32156597 4.40729228 25.6568787 4.74438677 28 5 C26 7 26 7 22.375 7.125 C21.26125 7.08375 20.1475 7.0425 19 7 C18.67 6.01 18.34 5.02 18 4 C12.06 3.01 6.12 2.02 0 1 C0 0.67 0 0.34 0 0 Z " fill="#B1A8A5" transform="translate(120,153)"/>
<path d="M0 0 C0 1.32 0 2.64 0 4 C2.475 4.495 2.475 4.495 5 5 C1.81579155 6.06140282 0.91540891 5.95892549 -2.23046875 5.22265625 C-3.03291016 5.03896484 -3.83535156 4.85527344 -4.66210938 4.66601562 C-5.49548828 4.46685547 -6.32886719 4.26769531 -7.1875 4.0625 C-8.03248047 3.86720703 -8.87746094 3.67191406 -9.74804688 3.47070312 C-11.833693 2.98758736 -13.91707614 2.49472096 -16 2 C-16 1.67 -16 1.34 -16 1 C-10.61509359 0.08342019 -5.45769811 -0.11138159 0 0 Z " fill="#A89C9C" transform="translate(57,142)"/>
<path d="M0 0 C3.87688786 0.61917628 7.02714562 1.80853699 10.5625 3.5 C13.69711374 4.9955716 16.59220325 6.29438561 20 7 C19.67 8.65 19.34 10.3 19 12 C15.125 10.25 15.125 10.25 14 8 C11.86104518 6.94202235 9.68840749 5.95148152 7.5 5 C1.11111111 2.22222222 1.11111111 2.22222222 0 0 Z " fill="#F34A20" transform="translate(38,117)"/>
<path d="M0 0 C0.99 0 1.98 0 3 0 C2.01 4.62 1.02 9.24 0 14 C-0.99 14 -1.98 14 -3 14 C-3.58163265 4.1122449 -3.58163265 4.1122449 0 0 Z " fill="#759AC4" transform="translate(116,64)"/>
<path d="M0 0 C1.4540625 0.0309375 1.4540625 0.0309375 2.9375 0.0625 C2.15375 0.64 1.37 1.2175 0.5625 1.8125 C-1.86297244 3.89147637 -2.91944417 5.15290333 -4.0625 8.0625 C-6.3725 7.7325 -8.6825 7.4025 -11.0625 7.0625 C-10.0625 4.0625 -10.0625 4.0625 -7.0625 2.4375 C-6.0725 1.98375 -5.0825 1.53 -4.0625 1.0625 C-3.0625 0.0625 -3.0625 0.0625 0 0 Z " fill="#B4723A" transform="translate(91.0625,130.9375)"/>
<path d="M0 0 C0.33 0 0.66 0 1 0 C1 5.61 1 11.22 1 17 C0.34 17 -0.32 17 -1 17 C-0.67 15.35 -0.34 13.7 0 12 C-1.32 12 -2.64 12 -4 12 C-3.33501617 7.61110675 -1.81242323 4.0188515 0 0 Z " fill="#A67737" transform="translate(96,111)"/>
<path d="M0 0 C0.66 0.33 1.32 0.66 2 1 C2.125 7.75 2.125 7.75 1 10 C-3.29 10 -7.58 10 -12 10 C-12 9.67 -12 9.34 -12 9 C-10.7625 9 -9.525 9 -8.25 9 C-6.032274 8.84124543 -6.032274 8.84124543 -4 8 C-2.10111729 5.53249582 -1.01456487 2.93022354 0 0 Z " fill="#EF4314" transform="translate(119,43)"/>
<path d="M0 0 C7.35251669 0.53410863 14.67902003 1.13140916 22 2 C15.77930622 5.4605184 9.44557628 4.07228578 2.78515625 2.6328125 C1 2 1 2 0 0 Z " fill="#D5D1D2" transform="translate(105,154)"/>
<path d="M0 0 C3.3 0.33 6.6 0.66 10 1 C10 2.32 10 3.64 10 5 C3.375 5.125 3.375 5.125 0 4 C0 2.68 0 1.36 0 0 Z " fill="#CAE3CB" transform="translate(127,123)"/>
<path d="M0 0 C-1.953125 2.24609375 -1.953125 2.24609375 -3.90625 4.4921875 C-5.19572458 5.95936421 -5.19572458 5.95936421 -5 8 C-6.98 7.34 -8.96 6.68 -11 6 C-11 5.01 -11 4.02 -11 3 C-9.73581754 2.30034557 -8.46334598 1.61565237 -7.1875 0.9375 C-6.47980469 0.55464844 -5.77210937 0.17179687 -5.04296875 -0.22265625 C-3 -1 -3 -1 0 0 Z " fill="#ABA1A1" transform="translate(44,108)"/>
<path d="M0 0 C0.33 0 0.66 0 1 0 C1 4.29 1 8.58 1 13 C0.01 13.33 -0.98 13.66 -2 14 C-3.22520264 17.00847418 -3.22520264 17.00847418 -4 20 C-4.625 18.25 -4.625 18.25 -5 16 C-4.33333333 14.66666667 -3.66666667 13.33333333 -3 12 C-2.59554367 10.30286952 -2.24259742 8.59277541 -1.9375 6.875 C-1.09722222 2.19444444 -1.09722222 2.19444444 0 0 Z " fill="#BA710D" transform="translate(108,81)"/>
<path d="M0 0 C2.79256219 0.11361602 5.58344118 0.2403589 8.375 0.375 C9.1690625 0.4059375 9.963125 0.436875 10.78125 0.46875 C16.7734375 0.7734375 16.7734375 0.7734375 19 3 C16.39576408 3.02697137 13.79180756 3.04682489 11.1875 3.0625 C10.44951172 3.07087891 9.71152344 3.07925781 8.95117188 3.08789062 C5.70077932 3.10259828 3.10595105 3.03531702 0 2 C0 1.34 0 0.68 0 0 Z " fill="#8A4E1D" transform="translate(70,138)"/>
<path d="M0 0 C2.13586678 3.20380017 2.23132175 4.01939967 2.125 7.6875 C2.10695313 8.49574219 2.08890625 9.30398437 2.0703125 10.13671875 C2.03550781 11.05904297 2.03550781 11.05904297 2 12 C0.68 12.33 -0.64 12.66 -2 13 C-2.05416188 11.39620659 -2.09286638 9.79188594 -2.125 8.1875 C-2.14820313 7.29417969 -2.17140625 6.40085938 -2.1953125 5.48046875 C-2 3 -2 3 0 0 Z " fill="#DA9141" transform="translate(40,130)"/>
<path d="M0 0 C0 3.5934292 -0.58617491 4.41970421 -3 7 C-5.6875 8.25 -5.6875 8.25 -8 9 C-8 9.66 -8 10.32 -8 11 C-11.63423209 13.32590854 -14.77088331 13.16265833 -19 13 C-16 11 -16 11 -13.5 10.0625 C-10.93682009 8.97314854 -9.89297306 7.97184694 -8 6 C-6.33333333 5 -4.66666667 4 -3 3 C-1.24850835 1.41754725 -1.24850835 1.41754725 0 0 Z " fill="#FAA65B" transform="translate(47,97)"/>
<path d="M0 0 C1.89551022 -0.05441656 3.7914792 -0.09298035 5.6875 -0.125 C6.74324219 -0.14820313 7.79898438 -0.17140625 8.88671875 -0.1953125 C12.0496086 0.00311221 14.13630518 0.70545303 17 2 C18.65919896 2.36871088 20.3247643 2.71281674 22 3 C22 3.33 22 3.66 22 4 C14.64748331 3.46589137 7.32097997 2.86859084 0 2 C0 1.34 0 0.68 0 0 Z " fill="#E4E0E1" transform="translate(93,154)"/>
<path d="M0 0 C-0.375 1.9375 -0.375 1.9375 -1 4 C-3.95664519 5.4783226 -6.74229737 5.06032783 -10 5 C-9.67 3.68 -9.34 2.36 -9 1 C-5.846632 0.29925156 -3.27275026 0 0 0 Z " fill="#D4A8A2" transform="translate(96,105)"/>
<path d="M0 0 C0.33 0 0.66 0 1 0 C0.70962919 7.54964117 -2.11713293 13.56288616 -6 20 C-6.66 20.33 -7.32 20.66 -8 21 C-5.72564796 13.81783567 -2.96415819 6.9241798 0 0 Z " fill="#DF380F" transform="translate(95,78)"/>
<path d="M0 0 C0 1.32 0 2.64 0 4 C-3.21451269 5.60725635 -6.43612536 5.05748185 -10 5 C-10 4.01 -10 3.02 -10 2 C-3.375 0 -3.375 0 0 0 Z " fill="#ECF7EC" transform="translate(137,61)"/>
<path d="M0 0 C1.65 0.33 3.3 0.66 5 1 C5 1.99 5 2.98 5 4 C1.7 5.32 -1.6 6.64 -5 8 C-3.47524303 4.95048605 -2.07114674 2.63600494 0 0 Z " fill="#E0DCE1" transform="translate(167,149)"/>
<path d="M0 0 C2.97 0.33 5.94 0.66 9 1 C9 2.32 9 3.64 9 5 C2.25 5.125 2.25 5.125 0 4 C0 2.68 0 1.36 0 0 Z " fill="#F9EED5" transform="translate(100,120)"/>
<path d="M0 0 C1.06992133 3.2775759 0.89284845 5.47288516 0.125 8.8125 C-0.76487425 12.87104808 -1.46274327 16.88103175 -2 21 C-2.33 21 -2.66 21 -3 21 C-3.0816082 18.62429457 -3.14077222 16.25144159 -3.1875 13.875 C-3.22520508 12.87726563 -3.22520508 12.87726563 -3.26367188 11.859375 C-3.33320714 7.13097708 -2.40278375 4.04878521 0 0 Z " fill="#A74F09" transform="translate(102,93)"/>
<path d="M0 0 C1.37436828 4.12310485 0.0286438 5.54139475 -1.875 9.375 C-3.80133029 13.27245896 -5.36939575 16.68278627 -6 21 C-9 17.375 -9 17.375 -9 14 C-8.01 13.67 -7.02 13.34 -6 13 C-4.3025965 9.99229216 -4.3025965 9.99229216 -2.8125 6.4375 C-2.28269531 5.23996094 -1.75289062 4.04242188 -1.20703125 2.80859375 C-0.80871094 1.88175781 -0.41039062 0.95492187 0 0 Z " fill="#F26B2D" transform="translate(48,59)"/>
<path d="M0 0 C-0.33 1.32 -0.66 2.64 -1 4 C-3.97 4 -6.94 4 -10 4 C-10 3.01 -10 2.02 -10 1 C-6.78548731 -0.60725635 -3.56387464 -0.05748185 0 0 Z " fill="#EFF8EE" transform="translate(137,71)"/>
<path d="M0 0 C0.66 0.33 1.32 0.66 2 1 C1.21086057 3.08429193 0.41859037 5.16739869 -0.375 7.25 C-0.81585938 8.41015625 -1.25671875 9.5703125 -1.7109375 10.765625 C-2.70590855 13.26209781 -3.74410046 15.62904947 -5 18 C-6.36139053 12.8189366 -5.59764648 10.2813915 -3.0625 5.625 C-2.49660156 4.56539062 -1.93070312 3.50578125 -1.34765625 2.4140625 C-0.90292969 1.61742187 -0.45820312 0.82078125 0 0 Z " fill="#DF350E" transform="translate(105,57)"/>
<path d="M0 0 C4.47238653 1.41807378 8.71146306 3.11304374 13 5 C12.67 5.66 12.34 6.32 12 7 C9.69 6.67 7.38 6.34 5 6 C5 5.34 5 4.68 5 4 C2.03 3.505 2.03 3.505 -1 3 C-0.67 2.01 -0.34 1.02 0 0 Z " fill="#D4CAC7" transform="translate(63,117)"/>
<path d="M0 0 C2.475 0.99 2.475 0.99 5 2 C4.67 3.65 4.34 5.3 4 7 C1.03 6.505 1.03 6.505 -2 6 C-1.49396008 3.83125748 -1.00016187 2.00032373 0 0 Z " fill="#F6EFEC" transform="translate(70,125)"/>
<path d="M0 0 C-1.24517965 1.13033298 -2.49636652 2.25405036 -3.75 3.375 C-4.44609375 4.00148438 -5.1421875 4.62796875 -5.859375 5.2734375 C-7.84508688 6.87505183 -9.67954093 7.96520068 -12 9 C-9.46807174 3.30316141 -6.66166295 -1.99849889 0 0 Z " fill="#DB340F" transform="translate(67,89)"/>
<path d="M0 0 C0.84051229 2.35343441 1.08353007 3.68444196 0.4375 6.125 C-1.6553524 8.85480748 -3.69551139 9.27301251 -7 10 C-9.1953125 9.54296875 -9.1953125 9.54296875 -11 9 C-10.45730469 8.68546875 -9.91460937 8.3709375 -9.35546875 8.046875 C-3.93281161 4.84458697 -3.93281161 4.84458697 0 0 Z " fill="#CA3511" transform="translate(68,80)"/>
<path d="M0 0 C0.33 1.32 0.66 2.64 1 4 C-1.475 5.485 -1.475 5.485 -4 7 C-4.66 6.34 -5.32 5.68 -6 5 C-5.75 2.9375 -5.75 2.9375 -5 1 C-3 0 -3 0 0 0 Z " fill="#FCEAD0" transform="translate(65,75)"/>
<path d="M0 0 C0.66 0 1.32 0 2 0 C1.46274105 3.37705625 0.88935377 6.696686 0 10 C-1.32 10 -2.64 10 -4 10 C-3.52449439 8.51965236 -3.04448784 7.04074979 -2.5625 5.5625 C-2.29566406 4.73878906 -2.02882813 3.91507813 -1.75390625 3.06640625 C-1 1 -1 1 0 0 Z " fill="#3B71B1" transform="translate(120,54)"/>
<path d="M0 0 C0.66 0 1.32 0 2 0 C2 4.29 2 8.58 2 13 C1.67 12.01 1.34 11.02 1 10 C0.01 10 -0.98 10 -2 10 C-1.46274105 6.62294375 -0.88935377 3.303314 0 0 Z " fill="#53BBF0" transform="translate(122,54)"/>
<path d="M0 0 C2.64 0 5.28 0 8 0 C8 1.32 8 2.64 8 4 C5.36 4 2.72 4 0 4 C0 2.68 0 1.36 0 0 Z " fill="#E5EBF5" transform="translate(114,122)"/>
<path d="M0 0 C5.46737191 1.74807129 10.75824848 3.65794081 16 6 C16 6.33 16 6.66 16 7 C10.03435204 6.49228528 5.36190101 4.61407872 0 2 C0 1.34 0 0.68 0 0 Z " fill="#EBE0DF" transform="translate(78,29)"/>
<path d="M0 0 C0.66 0.33 1.32 0.66 2 1 C1.0625 2.875 1.0625 2.875 -1 5 C-3.95485056 5.95351561 -6.9369519 6.51196718 -10 7 C-6.98387254 3.79017628 -3.91966781 1.99546725 0 0 Z " fill="#D5CCCD" transform="translate(162,153)"/>
<path d="M0 0 C1.32 0 2.64 0 4 0 C4 1.98 4 3.96 4 6 C2.02 6 0.04 6 -2 6 C-1.34 4.02 -0.68 2.04 0 0 Z " fill="#8E5F15" transform="translate(92,123)"/>
<path d="M0 0 C2.31 0 4.62 0 7 0 C7 1.32 7 2.64 7 4 C4.69 4 2.38 4 0 4 C0 2.68 0 1.36 0 0 Z " fill="#EFF6F9" transform="translate(116,73)"/>
<path d="M0 0 C3.66172475 0.62678171 6.8818995 1.64451846 10.3125 3.0625 C11.19550781 3.42472656 12.07851562 3.78695312 12.98828125 4.16015625 C13.65214844 4.43730469 14.31601563 4.71445312 15 5 C15 5.33 15 5.66 15 6 C9.54520815 5.43179252 5.08940744 4.05362055 0 2 C0 1.34 0 0.68 0 0 Z " fill="#ECDBD7" transform="translate(94,36)"/>
<path d="M0 0 C0.66 0 1.32 0 2 0 C1.54917531 1.46067199 1.08906463 2.91848032 0.625 4.375 C0.36976562 5.18710938 0.11453125 5.99921875 -0.1484375 6.8359375 C-1 9 -1 9 -3 11 C-5.125 10.625 -5.125 10.625 -7 10 C-6.401875 9.46375 -5.80375 8.9275 -5.1875 8.375 C-2.78684406 5.76857355 -1.45981486 3.2115927 0 0 Z " fill="#D9482B" transform="translate(89,121)"/>
<path d="M0 0 C2.97 0 5.94 0 9 0 C9 0.99 9 1.98 9 3 C6.03 3 3.06 3 0 3 C0 2.01 0 1.02 0 0 Z " fill="#E5BDB6" transform="translate(102,69)"/>
<path d="M0 0 C0.99 0.33 1.98 0.66 3 1 C3.125 3.375 3.125 3.375 3 6 C1 8 1 8 -0.9453125 8.1953125 C-2.96354167 8.13020833 -4.98177083 8.06510417 -7 8 C-7 7.67 -7 7.34 -7 7 C-5.02 6.67 -3.04 6.34 -1 6 C-0.67 4.02 -0.34 2.04 0 0 Z " fill="#EBD0C9" transform="translate(114,44)"/>
<path d="M0 0 C0.99 0.33 1.98 0.66 3 1 C1.35 4.63 -0.3 8.26 -2 12 C-2.66 12 -3.32 12 -4 12 C-3.52309796 10.37433394 -3.04340334 8.74948689 -2.5625 7.125 C-2.29566406 6.22007813 -2.02882813 5.31515625 -1.75390625 4.3828125 C-1 2 -1 2 0 0 Z " fill="#FC7D41" transform="translate(85,96)"/>
<path d="M0 0 C2.97 0 5.94 0 9 0 C8.67 0.99 8.34 1.98 8 3 C5.36 3 2.72 3 0 3 C0 2.01 0 1.02 0 0 Z " fill="#E0C2BF" transform="translate(100,75)"/>
<path d="M0 0 C4.83137707 0.59159719 9.38398308 1.43055425 14 3 C14.33 3.66 14.66 4.32 15 5 C9.7415998 4.32584613 4.97361654 2.75734451 0 1 C0 0.67 0 0.34 0 0 Z " fill="#D9D2D6" transform="translate(39,146)"/>
<path d="M0 0 C3.465 1.485 3.465 1.485 7 3 C7 3.33 7 3.66 7 4 C3.04 4 -0.92 4 -5 4 C-3.35 2.68 -1.7 1.36 0 0 Z " fill="#D59C5D" transform="translate(48,125)"/>
<path d="M0 0 C0 0.66 0 1.32 0 2 C-0.66 2 -1.32 2 -2 2 C-2 2.66 -2 3.32 -2 4 C-1.01 4.33 -0.02 4.66 1 5 C0.67 5.66 0.34 6.32 0 7 C-2.475 6.01 -2.475 6.01 -5 5 C-5 4.01 -5 3.02 -5 2 C-2 0 -2 0 0 0 Z " fill="#E5D8D8" transform="translate(47,113)"/>
<path d="M0 0 C0.721875 0.103125 1.44375 0.20625 2.1875 0.3125 C1.1975 0.6425 0.2075 0.9725 -0.8125 1.3125 C-1.1425 2.3025 -1.4725 3.2925 -1.8125 4.3125 C-2.8025 4.9725 -3.7925 5.6325 -4.8125 6.3125 C-5.8025 5.9825 -6.7925 5.6525 -7.8125 5.3125 C-3.50480769 0.38942308 -3.50480769 0.38942308 0 0 Z " fill="#F08D3F" transform="translate(29.8125,109.6875)"/>
<path d="M0 0 C1 3 1 3 -0.4375 6.1875 C-1.2109375 7.5796875 -1.2109375 7.5796875 -2 9 C-2.99 9 -3.98 9 -5 9 C-3.7508258 5.54074837 -2.32472205 2.85306797 0 0 Z " fill="#B42509" transform="translate(48,98)"/>
<path d="M0 0 C-0.53109375 0.24234375 -1.0621875 0.4846875 -1.609375 0.734375 C-5.73992624 2.69412559 -8.97110547 4.46628972 -12 8 C-12 5 -12 5 -10.25 2.9375 C-6.53417491 -0.26223827 -4.7503197 -1.37561341 0 0 Z " fill="#FABA6F" transform="translate(41,63)"/>
<path d="M0 0 C0.78375 0.04125 1.5675 0.0825 2.375 0.125 C3 1.9375 3 1.9375 3.375 4.125 C2.385 5.61 2.385 5.61 1.375 7.125 C1.045 6.135 0.715 5.145 0.375 4.125 C-2.12947516 2.90630071 -2.12947516 2.90630071 -4.625 2.125 C-2.625 0.125 -2.625 0.125 0 0 Z " fill="#F15027" transform="translate(115.625,40.875)"/>
<path d="M0 0 C0.598125 0.20625 1.19625 0.4125 1.8125 0.625 C1.8125 1.615 1.8125 2.605 1.8125 3.625 C0.86375 3.604375 -0.085 3.58375 -1.0625 3.5625 C-4.09416283 3.39948174 -4.09416283 3.39948174 -6.1875 4.625 C-5.03076352 1.15479057 -3.91311293 -0.67081936 0 0 Z " fill="#9E220E" transform="translate(31.1875,112.375)"/>
<path d="M0 0 C1.32 0.66 2.64 1.32 4 2 C4 3.98 4 5.96 4 8 C1 8 1 8 -1 7 C-0.649375 6.401875 -0.29875 5.80375 0.0625 5.1875 C1.33304698 2.89186786 1.33304698 2.89186786 0 0 Z " fill="#F9C385" transform="translate(64,74)"/>
<path d="M0 0 C4.62 0.99 9.24 1.98 14 3 C14 3.33 14 3.66 14 4 C3.44191344 4.3690205 3.44191344 4.3690205 -1 2 C-0.67 1.34 -0.34 0.68 0 0 Z " fill="#EA7D3A" transform="translate(108,37)"/>
<path d="M0 0 C0.33 0 0.66 0 1 0 C1.36923077 7.50769231 1.36923077 7.50769231 -0.5 10 C-0.995 10.33 -1.49 10.66 -2 11 C-2.95465783 8.83032311 -3.14401212 7.43671207 -2.3984375 5.17578125 C-1.64129615 3.4315257 -0.82390802 1.71372869 0 0 Z " fill="#DD3810" transform="translate(86,99)"/>
<path d="M0 0 C-0.6875 2.875 -0.6875 2.875 -2 6 C-4.625 7.375 -4.625 7.375 -7 8 C-7 5 -7 5 -4.625 2.3125 C-2 0 -2 0 0 0 Z " fill="#FAAD72" transform="translate(45,66)"/>
<path d="M0 0 C6.15234375 0.5859375 6.15234375 0.5859375 8 1 C8.33 1.66 8.66 2.32 9 3 C2.25 3.125 2.25 3.125 0 2 C0 1.34 0 0.68 0 0 Z " fill="#D3D0D2" transform="translate(130,157)"/>
<path d="M0 0 C3.34373475 0.55728913 6.03312999 1.35173889 9 3 C8.67 3.66 8.34 4.32 8 5 C5.36 4.67 2.72 4.34 0 4 C0 2.68 0 1.36 0 0 Z " fill="#D44328" transform="translate(101,71)"/>
<path d="M0 0 C0 0.99 0 1.98 0 3 C-2.31 4.32 -4.62 5.64 -7 7 C-7 6.01 -7 5.02 -7 4 C-4.69 2.68 -2.38 1.36 0 0 Z " fill="#C7C3C5" transform="translate(47,110)"/>
<path d="M0 0 C1.32 0 2.64 0 4 0 C4 1.32 4 2.64 4 4 C2.35 4 0.7 4 -1 4 C-0.67 2.68 -0.34 1.36 0 0 Z " fill="#E3EFF6" transform="translate(119,64)"/>
<path d="M0 0 C1.32 0 2.64 0 4 0 C3.67 1.65 3.34 3.3 3 5 C1.68 4.34 0.36 3.68 -1 3 C-0.67 2.01 -0.34 1.02 0 0 Z " fill="#EA4A28" transform="translate(54,124)"/>
<path d="M0 0 C0.33 0 0.66 0 1 0 C0.67 2.64 0.34 5.28 0 8 C-0.99 8.33 -1.98 8.66 -3 9 C-2.01 6.03 -1.02 3.06 0 0 Z " fill="#E54012" transform="translate(95,78)"/>
</svg>
